<?xml version="1.0" encoding="utf-8"?>
<!-- Generator: Adobe Illustrator 21.0.0, SVG Export Plug-In . SVG Version: 6.00 Build 0)  -->
<svg version="1.1" xmlns="http://www.w3.org/2000/svg" xmlns:xlink="http://www.w3.org/1999/xlink" x="0px" y="0px"
	 viewBox="0 0 621.1 165.9" style="enable-background:new 0 0 621.1 165.9;" xml:space="preserve">
<g id="Calque_2">
</g>
<g id="Calque_1">
	<g>
		<polygon style="fill:#FFFFFF;" points="123.6,90.3 92,109.2 90.9,93 112.3,70.3 90.4,87.1 89.5,73.4 102,53.7 89,66.1 86,24.5 
			86,137.7 94,137.7 92.6,117.8 		"/>
		<polygon style="fill:#008A81;" points="118.8,80.5 94.3,101.8 117.7,93.2 		"/>
		<polygon style="fill:#09B6A9;" points="118.8,80.5 117.7,93.2 131.3,101.8 		"/>
		<g>
			<polygon style="fill:#09B6A9;" points="108.3,72.9 108.1,62.2 117.8,78.8 			"/>
		</g>
		<polygon style="fill:#008A81;" points="91.8,78.8 108.3,72.9 108.1,62.2 		"/>
		<polygon style="fill:#006F69;" points="94.3,101.8 131.3,101.8 117.7,93.2 		"/>
		<polygon style="fill:#006F69;" points="91.8,78.8 117.8,78.8 108.3,72.9 		"/>
		<g>
			<polygon style="fill:#09B6A9;" points="86,24.5 97.4,54.8 107.3,60.8 			"/>
			<polygon style="fill:#008A81;" points="86,60.8 86,24.5 97.4,54.8 			"/>
			<polygon style="fill:#006F69;" points="86,60.8 107.3,60.8 97.4,54.8 			"/>
		</g>
		<g>
			<path style="fill:#00B7AA;" d="M146.1,120.8l-0.1-0.1l-0.1,0.1c-12.5,20.7-34.3,34-58.5,35.5c-1.5,0.1-3,0.1-4.5,0.1
				c-17.9,0-35.2-6.5-48.7-18.4C19.6,125,10.8,107,9.6,87.4C8.4,67.9,14.9,49,27.9,34.3c13-14.7,30.9-23.5,50.5-24.6
				c1.5-0.1,3-0.1,4.5-0.1c22.7,0,43.8,10.3,57.9,28.2l0.1,0.1l7.5-5.9l-0.1-0.1C132.4,11.6,108.6,0,83,0c-1.7,0-3.4,0.1-5.1,0.2
				C55.8,1.5,35.5,11.4,20.8,28C6.1,44.6-1.2,65.9,0.2,88c1.4,22.1,11.2,42.4,27.8,57.1c15.2,13.4,34.7,20.8,54.9,20.8
				c1.7,0,3.4-0.1,5.2-0.2c27.2-1.7,51.9-16.6,66-40l0.1-0.1L146.1,120.8z"/>
			<path style="fill:#B1B4B6;" d="M86,137.7l0-113.3L83.2,65L70,55.9l12.9,12.9l-0.7,10.5L61.8,68.2l20,16.3l-1,14.2L52.3,83.9
				c0,0,21.9,17.1,28,22.3l-0.9,13.2l-38.8-14.7c0,0,29.2,17.4,38.2,23.1l-0.7,9.9H86z"/>
			<polygon style="fill:#008A81;" points="33.8,113.9 45.1,94.5 47.8,106.9 			"/>
			<polygon style="fill:#008A81;" points="55.7,76.4 57,86.8 46.3,92.5 			"/>
			<polygon style="fill:#00B7AA;" points="55.7,76.4 78.6,92.5 57,86.8 			"/>
			<g>
				<polygon style="fill:#00B7AA;" points="64.1,62.1 80.6,74.5 59.9,74.3 				"/>
			</g>
			<polygon style="fill:#00B7AA;" points="45.1,94.5 47.8,106.9 76.2,113.9 			"/>
			<polygon style="fill:#006F69;" points="56.8,74.5 80.6,74.5 65,69.9 			"/>
			<polygon style="fill:#006F69;" points="46.3,92.5 78.6,92.5 57,86.8 			"/>
			<polygon style="fill:#006F69;" points="33.8,113.9 76.2,113.9 47.8,106.9 			"/>
			<polygon style="fill:#008A81;" points="64.1,62.1 65,69.9 56.8,74.5 			"/>
			<g>
				<polygon style="fill:#008A81;" points="86,24.5 74.7,54.8 64.7,60.8 				"/>
				<polygon style="fill:#09B6A9;" points="86,60.8 86,24.5 74.7,54.8 				"/>
				<polygon style="fill:#006F69;" points="86,60.8 64.7,60.8 74.7,54.8 				"/>
			</g>
		</g>
	</g>
	<g>
		<g>
			<g>
				<path style="fill:#FFFFFF;" d="M352.6,42.6H327v77.8h25.6c21.5,0,39.1-17.5,39.1-38.9C391.6,60.1,374.1,42.7,352.6,42.6z
					 M382.8,81.5c0,16.7-13.7,30.2-30.5,30.2h-16.7V51.2h16.7C369.1,51.2,382.8,64.8,382.8,81.5z"/>
			</g>
			<g>
				<path style="fill:#FFFFFF;" d="M459.2,64.5c0-12.1-11.6-21.9-25.9-21.9h-33.1v77.9h8.7V86.3h20.5l22.5,34.1l0.1,0.1h10.5
					l-23.1-34.8C450.9,83.2,459.2,74.4,459.2,64.5z M450.3,64.5c0,7.3-7.6,13.4-17,13.4h-24.3V51h24.3
					C442.6,51,450.3,57.1,450.3,64.5z"/>
			</g>
			<g>
				<polygon style="fill:#FFFFFF;" points="470.7,120.4 529.3,120.4 529.3,111.7 479.5,111.7 479.5,84.9 519.8,84.9 519.8,76.2 
					479.5,76.2 479.5,51.1 529.3,51.1 529.3,42.4 470.7,42.4 				"/>
			</g>
			<g>
				<polygon style="fill:#FFFFFF;" points="259.3,120.4 317.9,120.4 317.9,111.7 268.2,111.7 268.2,85 308.4,85 308.4,76.3 
					268.2,76.3 268.2,51.3 317.9,51.3 317.9,42.6 259.3,42.6 				"/>
			</g>
			<g>
				<path style="fill:#FFFFFF;" d="M243,97.9c-5.6,8.9-15.4,14.6-26.2,15.3c-0.7,0-1.4,0.1-2,0.1c-8,0-15.8-2.8-21.8-7.9
					c-6.6-5.6-10.5-13.3-11-21.8c-0.5-8.4,2.4-16.6,8.2-22.9C196,54.3,204,50.6,212.8,50c0.7,0,1.4-0.1,2.1-0.1
					c10.1,0,19.5,4.4,25.8,12.2l0.5,0.6l7.3-5.5l-0.5-0.6c-8-9.9-20.1-15.5-33.1-15.5c-0.8,0-1.7,0-2.6,0.1
					c-11.2,0.7-21.5,5.5-28.9,13.6c-7.5,8.1-11.2,18.5-10.5,29.4c0.7,10.8,5.7,20.7,14.1,27.9c7.7,6.6,17.6,10.2,27.8,10.2
					c0.8,0,1.7,0,2.6-0.1c13.8-0.8,26.3-8.1,33.5-19.6l0.4-0.7l-7.9-4.6L243,97.9z"/>
			</g>
			<g>
				<path style="fill:#FFFFFF;" d="M547.4,54.5c-7.2,7.6-11.1,17.4-11.1,27.6s3.9,20,11.1,27.6c7.1,7.5,16.8,12.2,27.2,13.1l0.3,0
					v-9.3l-0.3,0c-16.7-1.9-28.9-15.1-28.9-31.5s12.1-29.6,28.9-31.5l0.3,0v-9.3l-0.3,0C564.1,42.4,554.5,47,547.4,54.5z"/>
			</g>
			<g>
				<path style="fill:#00B7AA;" d="M610,54.6c-7.1-7.5-16.8-12.2-27.2-13.2l-0.3,0v9.3l0.3,0c16.5,2,28.9,15.5,28.9,31.4
					s-12.4,29.5-28.9,31.4l-0.3,0v9.3l0.3,0c10.4-1,20.1-5.7,27.2-13.2c7.2-7.6,11.1-17.3,11.1-27.6S617.2,62.1,610,54.6z"/>
			</g>
		</g>
	</g>
</g>
<g id="Calque_3">
</g>
</svg>
