<?xml version="1.0" encoding="utf-8"?>
<!-- Generator: Adobe Illustrator 21.0.0, SVG Export Plug-In . SVG Version: 6.00 Build 0)  -->
<svg version="1.1" xmlns="http://www.w3.org/2000/svg" xmlns:xlink="http://www.w3.org/1999/xlink" x="0px" y="0px"
	 viewBox="0 0 439 363.3" style="enable-background:new 0 0 439 363.3;" xml:space="preserve">
<g id="Calque_2" style="display:none;">
</g>
<g id="Calque_1">
	<g>
		<g>
			<g>
				<g>
					<path style="fill:#FFFFFF;" d="M176.1,284.6H151v76.2h25c21.1,0,38.3-17.1,38.3-38.1C214.3,301.8,197.2,284.7,176.1,284.6z
						 M205.7,322.7c0,16.3-13.4,29.6-29.8,29.6h-16.3v-59.2h16.3C192.3,293.1,205.7,306.4,205.7,322.7z"/>
				</g>
				<g>
					<path style="fill:#FFFFFF;" d="M280.5,306.1c0-11.8-11.4-21.5-25.4-21.5h-32.4v76.3h8.5v-33.5h20l22.1,33.3l0.1,0.1h10.3
						l-22.6-34.1C272.4,324.5,280.5,315.8,280.5,306.1z M271.7,306.1c0,7.2-7.5,13.1-16.6,13.2h-23.8v-26.4h23.8
						C264.3,292.9,271.7,298.9,271.7,306.1z"/>
				</g>
				<g>
					<polygon style="fill:#FFFFFF;" points="291.8,360.8 349.1,360.8 349.1,352.3 300.4,352.3 300.4,326.1 339.8,326.1 339.8,317.6 
						300.4,317.6 300.4,293 349.1,293 349.1,284.5 291.8,284.5 					"/>
				</g>
				<g>
					<polygon style="fill:#FFFFFF;" points="84.8,360.8 142.1,360.8 142.1,352.3 93.4,352.3 93.4,326.2 132.8,326.2 132.8,317.7 
						93.4,317.7 93.4,293.2 142.1,293.2 142.1,284.6 84.8,284.6 					"/>
				</g>
				<g>
					<path style="fill:#FFFFFF;" d="M68.8,338.8c-5.5,8.7-15,14.3-25.6,15c-0.7,0-1.3,0.1-2,0.1c-7.9,0-15.4-2.8-21.3-7.8
						c-6.4-5.5-10.3-13-10.8-21.3c-0.5-8.3,2.3-16.2,8-22.4c5.7-6.2,13.6-9.9,22.1-10.4c0.7,0,1.4-0.1,2.1-0.1
						c9.9,0,19.1,4.3,25.2,11.9l0.5,0.6l7.1-5.4l-0.5-0.6c-7.9-9.7-19.7-15.2-32.4-15.2c-0.8,0-1.7,0-2.5,0.1
						c-11,0.6-21,5.4-28.3,13.3c-7.3,7.9-10.9,18.2-10.3,28.8c0.7,10.6,5.6,20.3,13.8,27.3c7.5,6.4,17.2,10,27.2,10
						c0.8,0,1.7,0,2.6-0.1c13.5-0.8,25.8-8,32.8-19.1l0.4-0.7l-7.7-4.5L68.8,338.8z"/>
				</g>
				<g>
					<path style="fill:#FFFFFF;" d="M366.8,296.3c-7,7.4-10.9,17-10.9,27c0,10,3.9,19.6,10.9,27c7,7.4,16.4,11.9,26.6,12.9l0.3,0
						v-9.1l-0.2,0c-16.4-1.8-28.3-14.8-28.3-30.8s11.9-29,28.3-30.8l0.2,0v-9.1l-0.3,0C383.2,284.4,373.8,289,366.8,296.3z"/>
				</g>
				<g>
					<path style="fill:#00B7AA;" d="M428.1,296.4c-7-7.3-16.4-11.9-26.6-12.9l-0.3,0v9.1l0.2,0c16.1,1.9,28.3,15.2,28.3,30.8
						s-12.1,28.8-28.3,30.8l-0.2,0v9.1l0.3,0c10.2-1,19.7-5.5,26.6-12.9c7-7.4,10.9-17,10.9-27C439,313.4,435.1,303.8,428.1,296.4z"
						/>
				</g>
			</g>
			<g>
				<g>
					<path style="fill:#A8A8A8;" d="M233.3,211.7l0-174l-4.4,62.3l-20.2-14.1l19.8,19.8l-1.1,16.2l-31.3-17l30.7,25.1l-1.5,21.9
						L181.4,129c0,0,33.6,26.3,43,34.3l-1.4,20.2L163.4,161c0,0,44.8,26.7,58.7,35.6l-1.1,15.1H233.3z"/>
				</g>
				<g>
					<polygon style="fill:#FFFFFF;" points="291,138.8 242.5,167.9 240.7,142.9 273.7,108 240.1,133.8 238.6,112.8 257.9,82.5 
						237.8,101.6 233.3,37.6 233.3,211.7 245.6,211.7 243.4,181 					"/>
				</g>
				<g>
					<g>
						<polygon style="fill:#00B7AA;" points="283.7,123.7 281.9,143.2 302.9,156.5 						"/>
					</g>
					<g>
						<g>
							<polygon style="fill:#00B7AA;" points="267.5,112 267.2,95.6 282.1,121 							"/>
						</g>
					</g>
					<g>
						<polygon style="fill:#00B7AA;" points="186.7,117.4 221.9,142.1 188.7,133.4 						"/>
					</g>
					<g>
						<polygon style="fill:#00B7AA;" points="199.5,95.5 224.9,114.5 193.2,114.2 						"/>
					</g>
					<g>
						<polygon style="fill:#00B7AA;" points="170.4,145.2 174.5,164.2 218.2,175.1 						"/>
					</g>
					<g>
						<polygon style="fill:#00B7AA;" points="233.3,37.6 250.8,84.1 266,93.4 						"/>
					</g>
					<g>
						<polygon style="fill:#00B7AA;" points="233.3,93.4 233.3,37.6 215.8,84.1 						"/>
					</g>
				</g>
				<g>
					<path style="fill:#00B7AA;" d="M325.6,185.6l-0.2-0.1l-0.1,0.2c-19.2,31.8-52.8,52.2-89.8,54.5c-2.3,0.1-4.6,0.2-6.9,0.2
						c-27.6,0-54.1-10.1-74.8-28.3c-22.6-20-36-47.6-37.9-77.7C114,104.3,124,75.3,144,52.7c20-22.6,47.6-36,77.7-37.9
						c2.3-0.1,4.6-0.2,6.9-0.2c34.9,0,67.4,15.8,88.9,43.3l0.1,0.2l11.5-9l-0.1-0.2C304.6,17.8,268,0,228.6,0
						c-2.6,0-5.2,0.1-7.9,0.2c-34,2.1-65.1,17.3-87.7,42.8c-22.6,25.5-33.8,58.3-31.8,92.3c2.1,34,17.3,65.1,42.8,87.7
						c23.3,20.6,53.3,32,84.3,32c2.6,0,5.3-0.1,8-0.2c41.8-2.6,79.8-25.6,101.5-61.5l0.1-0.2L325.6,185.6z"/>
				</g>
				<g>
					<g>
						<polygon style="fill:#008A81;" points="153,175.1 170.4,145.2 174.5,164.2 						"/>
					</g>
					<g>
						<polygon style="fill:#008A81;" points="283.7,123.7 245.9,156.5 281.9,143.2 						"/>
					</g>
					<g>
						<polygon style="fill:#008A81;" points="186.7,117.4 188.7,133.4 172.3,142.1 						"/>
					</g>
					<g>
						<polygon style="fill:#008A81;" points="242.1,121 267.5,112 267.2,95.6 						"/>
					</g>
					<g>
						<polygon style="fill:#008A81;" points="199.5,95.5 200.9,107.4 188.3,114.5 						"/>
					</g>
					<g>
						<polygon style="fill:#008A81;" points="233.3,93.4 233.3,37.6 250.8,84.1 						"/>
					</g>
					<g>
						<polygon style="fill:#008A81;" points="233.3,37.6 215.8,84.1 200.6,93.4 						"/>
					</g>
				</g>
				<g>
					<g>
						<polygon style="fill:#006F68;" points="188.3,114.5 224.9,114.5 200.9,107.4 						"/>
					</g>
					<g>
						<polygon style="fill:#006F68;" points="172.3,142.1 221.9,142.1 188.7,133.4 						"/>
					</g>
					<g>
						<polygon style="fill:#006F68;" points="153,175.1 218.2,175.1 174.5,164.2 						"/>
					</g>
					<g>
						<polygon style="fill:#006F68;" points="245.9,156.5 302.9,156.5 281.9,143.2 						"/>
					</g>
					<g>
						<polygon style="fill:#006F68;" points="242.1,121 282.1,121 267.5,112 						"/>
					</g>
					<g>
						<polygon style="fill:#006F68;" points="233.3,93.4 266,93.4 250.8,84.1 						"/>
					</g>
					<g>
						<polygon style="fill:#006F68;" points="233.3,93.4 200.6,93.4 215.8,84.1 						"/>
					</g>
				</g>
			</g>
		</g>
	</g>
</g>
<g id="Calque_3">
</g>
</svg>
