<svg xmlns="http://www.w3.org/2000/svg" viewBox="0 0 539 480"><defs><style>.cls-1{fill:#ffc843;}</style></defs><g id="Calque_1" data-name="Calque 1"><g id="Groupe_82" data-name="Groupe 82"><g id="Groupe_46-2" data-name="Groupe 46-2"><g id="Groupe_35-2" data-name="Groupe 35-2"><rect id="Rectangle_8-2" data-name="Rectangle 8-2" class="cls-1" x="181.21" y="52.7" width="2.35" height="1.97" transform="translate(0.26 108.26) rotate(-33.08)"/></g><g id="Groupe_36-2" data-name="Groupe 36-2"><path id="Tracé_65-2" data-name="Tracé 65-2" class="cls-1" d="M164.6,64.3l14.27-9.47L180,56.48,165.7,65.94Z"/></g><g id="Groupe_37-2" data-name="Groupe 37-2"><path id="Tracé_66-2" data-name="Tracé 66-2" class="cls-1" d="M173.34,85.23l-.14-2,19.57-1.38.14,2Z"/></g><g id="Groupe_38-2" data-name="Groupe 38-2"><path id="Tracé_67-2" data-name="Tracé 67-2" class="cls-1" d="M195.8,83.69l-.13-2,4.88-.31.14,2Z"/></g><g id="Groupe_39-2" data-name="Groupe 39-2"><path id="Tracé_68-2" data-name="Tracé 68-2" class="cls-1" d="M151,22.83l1.49-5.2,1.91.55-1.49,5.19Z"/></g><g id="Groupe_40-2" data-name="Groupe 40-2"><rect id="Rectangle_9-2" data-name="Rectangle 9-2" class="cls-1" x="137.11" y="35.05" width="21.79" height="1.97" transform="translate(70.25 167.03) rotate(-72.99)"/></g><g id="Groupe_41-2" data-name="Groupe 41-2"><rect id="Rectangle_10-2" data-name="Rectangle 10-2" class="cls-1" x="154.84" y="50.79" width="9.29" height="1.97" transform="translate(21.22 146.64) rotate(-52.44)"/></g><g id="Groupe_42-2" data-name="Groupe 42-2"><rect id="Rectangle_11-2" data-name="Rectangle 11-2" class="cls-1" x="160.23" y="116.19" width="1.98" height="12.36" transform="translate(-41.1 128.29) rotate(-38.87)"/></g><g id="Groupe_43-2" data-name="Groupe 43-2"><path id="Tracé_69-2" data-name="Tracé 69-2" class="cls-1" d="M166.27,101.65l.74-1.84,11.15,4.52-.74,1.84Z"/></g><g id="Groupe_44-2" data-name="Groupe 44-2"><path id="Tracé_70-2" data-name="Tracé 70-2" class="cls-1" d="M111.87,41.81l1.82-.79,4.4,10.16-1.81.79Z"/></g><g id="Groupe_45-2" data-name="Groupe 45-2"><path id="Tracé_71-2" data-name="Tracé 71-2" class="cls-1" d="M128.57,48l-1.11-16,2-.14,1.11,16Z"/></g></g><g id="Groupe_80" data-name="Groupe 80"><g id="Groupe_67" data-name="Groupe 67"><g id="Groupe_49" data-name="Groupe 49"><path id="Tracé_72" data-name="Tracé 72" class="cls-1" d="M85.51,116.75,83,115.36l4.24-7.63,11.62-3.33a1.44,1.44,0,0,0-.79-2.77l-12.91,3.71a4.32,4.32,0,0,0-2.59,2l-1.63,3a7.11,7.11,0,0,1-4.31,3.41l-6,1.72-.8-2.75,6-1.72a4.32,4.32,0,0,0,2.58-2.06l1.63-3a7.14,7.14,0,0,1,4.3-3.42l12.91-3.7a4.31,4.31,0,0,1,2.38,8.29l-10.48,3Z"/></g><g id="Groupe_50" data-name="Groupe 50"><path id="Tracé_73" data-name="Tracé 73" class="cls-1" d="M103.21,130.06l-14.29,4.09a7.08,7.08,0,0,1-5.46-.62l-1.17-.64a4.31,4.31,0,0,0-3.28-.38l-3.23.93-.8-2.77,3.24-.92a7.12,7.12,0,0,1,5.46.61l1.17.65a4.27,4.27,0,0,0,3.28.38l14.28-4.1Z"/></g><g id="Groupe_51" data-name="Groupe 51"><path id="Tracé_74" data-name="Tracé 74" class="cls-1" d="M110.12,128.07l-8.29,2.38a4.31,4.31,0,0,1-2.38-8.29l8.29-2.37a4.31,4.31,0,0,1,2.38,8.28Zm-9.88-3.14a1.43,1.43,0,0,0,.7,2.78l.1,0,8.29-2.38a1.44,1.44,0,0,0-.8-2.76Z"/></g><g id="Groupe_52" data-name="Groupe 52"><path id="Tracé_75" data-name="Tracé 75" class="cls-1" d="M108.53,122.55l-8.29,2.38a4.31,4.31,0,1,1-2.37-8.29l8.29-2.38a4.31,4.31,0,1,1,2.37,8.29Zm-9.87-3.15a1.44,1.44,0,0,0-1,1.74,1.45,1.45,0,0,0,1.75,1l.09,0,8.29-2.38A1.44,1.44,0,0,0,107,117Z"/></g><g id="Groupe_53" data-name="Groupe 53"><path id="Tracé_76" data-name="Tracé 76" class="cls-1" d="M107,117l-8.29,2.38a4.31,4.31,0,0,1-2.38-8.29l8.29-2.38A4.31,4.31,0,1,1,107,117Zm-9.88-3.15a1.45,1.45,0,0,0-1,1.75,1.42,1.42,0,0,0,1.74,1l.1,0,8.29-2.38a1.44,1.44,0,0,0-.8-2.76Z"/></g><g id="Groupe_54" data-name="Groupe 54"><path id="Tracé_77" data-name="Tracé 77" class="cls-1" d="M105.36,111.5l-8.29,2.37a4.31,4.31,0,1,1-2.37-8.28l8.29-2.38a4.31,4.31,0,1,1,2.37,8.29Zm-9.87-3.15a1.44,1.44,0,0,0,.7,2.79l.09,0,8.29-2.38a1.44,1.44,0,0,0-.79-2.76Z"/></g><g id="Groupe_55" data-name="Groupe 55"><path id="Tracé_78" data-name="Tracé 78" class="cls-1" d="M78.34,137.19l-11,3.16-7.92-27.62,11.05-3.17Zm-9.08-.39,5.53-1.58-6.34-22.11-5.52,1.59Z"/></g><g id="Groupe_56" data-name="Groupe 56"><path id="Tracé_79" data-name="Tracé 79" class="cls-1" d="M121,98.06a4.33,4.33,0,0,1-5.34-3L104.52,56.42a4.31,4.31,0,0,1,8.29-2.37L123.9,92.73A4.31,4.31,0,0,1,121,98.06ZM108.27,53.85a1.44,1.44,0,0,0-1,1.78l11.09,38.68a1.44,1.44,0,0,0,2.76-.79L110.05,54.84A1.45,1.45,0,0,0,108.27,53.85Z"/></g><g id="Groupe_57" data-name="Groupe 57"><path id="Tracé_80" data-name="Tracé 80" class="cls-1" d="M116.78,96.13l-1.54-.23c-10.53-1.57-25.19.55-34.37,3.18l-1.38.4L71.57,71.85,73,71.46c9.17-2.63,22.74-8.61,30.84-15.52l1.19-1,1.86,2.19-1.19,1c-8,6.84-21.13,12.78-30.53,15.68l6.35,22.13c9.5-2.53,23.77-4.43,34.2-2.88l1.54.23Z"/></g><g id="Groupe_58" data-name="Groupe 58"><path id="Tracé_81" data-name="Tracé 81" class="cls-1" d="M85,76.41l-1.07-2.68a102.07,102.07,0,0,0,18-9.23l1.59,2.4A105.3,105.3,0,0,1,85,76.41Z"/></g><g id="Groupe_59" data-name="Groupe 59"><path id="Tracé_82" data-name="Tracé 82" class="cls-1" d="M80.88,99.09l-5.53,1.58a4.32,4.32,0,0,1-5.33-3L64.47,78.37a4.32,4.32,0,0,1,3-5.33L73,71.46l.8,2.76L68.22,75.8a1.45,1.45,0,0,0-1,1.78h0l5.55,19.34a1.43,1.43,0,0,0,1.78,1h0l5.52-1.59Z"/></g><g id="Groupe_60" data-name="Groupe 60"><rect id="Rectangle_12" data-name="Rectangle 12" class="cls-1" x="70.62" y="76.93" width="8.62" height="2.87" transform="matrix(0.96, -0.28, 0.28, 0.96, -18.7, 23.69)"/></g><g id="Groupe_61" data-name="Groupe 61"><rect id="Rectangle_13" data-name="Rectangle 13" class="cls-1" x="74.58" y="90.74" width="8.62" height="2.87" transform="translate(-22.35 25.32) rotate(-16)"/></g><g id="Groupe_62" data-name="Groupe 62"><rect id="Rectangle_14" data-name="Rectangle 14" class="cls-1" x="82.99" y="98.18" width="2.87" height="5.75" transform="translate(-24.58 27.19) rotate(-16)"/></g><g id="Groupe_63" data-name="Groupe 63"><rect id="Rectangle_15" data-name="Rectangle 15" class="cls-1" x="88.74" y="110.31" width="2.87" height="21.56" transform="translate(-29.88 29.55) rotate(-16)"/></g><g id="Groupe_64" data-name="Groupe 64"><rect id="Rectangle_16" data-name="Rectangle 16" class="cls-1" x="94.05" y="95.01" width="2.87" height="5.75" transform="translate(-23.28 30.11) rotate(-16)"/></g><g id="Groupe_65" data-name="Groupe 65"><path id="Tracé_83" data-name="Tracé 83" class="cls-1" d="M71.8,98.7l-6.91,2-6.34-22.1,6.91-2,.79,2.76-4.14,1.19,4.75,16.57L71,95.94Z"/></g><g id="Groupe_66" data-name="Groupe 66"><path id="Tracé_84" data-name="Tracé 84" class="cls-1" d="M65.48,97.52l-1.38.4a8.86,8.86,0,0,1-8.92-8.6,9.42,9.42,0,0,1,4.16-8l1.38-.4.8,2.77-1.38.39a5.75,5.75,0,1,0,3,11.11l.18-.06,1.39-.39Z"/></g></g><g id="Groupe_71" data-name="Groupe 71"><path id="Tracé_86" data-name="Tracé 86" class="cls-1" d="M116.42,118.78l-.79-2.75a43.38,43.38,0,0,0,26.16-20.81L143.57,92l2.51,1.39-1.78,3.22A46.25,46.25,0,0,1,116.42,118.78Z"/></g><g id="Groupe_72" data-name="Groupe 72"><path id="Tracé_87" data-name="Tracé 87" class="cls-1" d="M148.19,99.22l-2.76.79-1.59-5.53-5.53,1.59-.79-2.76,8.29-2.38Z"/></g><g id="Groupe_73" data-name="Groupe 73"><path id="Tracé_88" data-name="Tracé 88" class="cls-1" d="M156.9,129.61,118.22,140.7l-.79-2.76,35.92-10.3L147,105.54l2.76-.8Z"/></g><g id="Groupe_74" data-name="Groupe 74"><path id="Tracé_89" data-name="Tracé 89" class="cls-1" d="M128.88,136.15l-2.76.79-2-6.91-2.77.8,2,6.9-2.76.8-2.77-9.67,8.29-2.38Z"/></g><g id="Groupe_75" data-name="Groupe 75"><path id="Tracé_90" data-name="Tracé 90" class="cls-1" d="M139.93,133l-2.76.79-3.57-12.43-2.76.79,3.56,12.44-2.76.79-4.36-15.2,8.29-2.37Z"/></g><g id="Groupe_76" data-name="Groupe 76"><path id="Tracé_91" data-name="Tracé 91" class="cls-1" d="M151,129.81l-2.76.79-5.15-17.95-2.76.79,5.15,18-2.77.79-5.94-20.72,8.29-2.38Z"/></g></g></g><g id="Groupe_105" data-name="Groupe 105"><g id="Groupe_103" data-name="Groupe 103"><g id="Groupe_83" data-name="Groupe 83"><path id="Tracé_92" data-name="Tracé 92" class="cls-1" d="M121.72,280.74l-2,1.6L109.3,269.07,96,279.44l-1.6-2,15.31-12Z"/></g><g id="Groupe_84" data-name="Groupe 84"><path id="Tracé_93" data-name="Tracé 93" class="cls-1" d="M147.13,262.52l-26.06,20.37-26.52-3.25-34.64-44.3,49-38.3,15.95,20.42-2,1.59-14.36-18.37-44.9,35.1L95.93,277.2l24.39,3,25.22-19.71Z"/></g><g id="Groupe_85" data-name="Groupe 85"><path id="Tracé_94" data-name="Tracé 94" class="cls-1" d="M157.46,261.27,145,263.08a16.88,16.88,0,0,1-15.68-6.29l-12.8-16.37,3.87-3a16.13,16.13,0,0,0,6.16-14l-.14-1.94,1.84.61a16.13,16.13,0,0,0,15-2.61l3.87-3,12.8,16.36a16.92,16.92,0,0,1,2.32,16.75Zm-37.32-20.4,11.2,14.32a14.27,14.27,0,0,0,13.28,5.33l11-1.6,4.21-10.3a14.27,14.27,0,0,0-2-14.17l-11.19-14.32-1.83,1.42a18.67,18.67,0,0,1-15.68,3.52,18.72,18.72,0,0,1-7.2,14.37Z"/></g><g id="Groupe_86" data-name="Groupe 86"><path id="Tracé_95" data-name="Tracé 95" class="cls-1" d="M157.44,247.64l-2.4-1a9.09,9.09,0,0,0-1.25-9L149,231.48l2-1.59,4.81,6.16A11.65,11.65,0,0,1,157.44,247.64Z"/></g><g id="Groupe_87" data-name="Groupe 87"><path id="Tracé_96" data-name="Tracé 96" class="cls-1" d="M110.76,212,74,240.76l-4.78-6.13L106,205.91Zm-36.3,25.09,32.66-25.53-1.6-2L72.86,235.08Z"/></g><g id="Groupe_88" data-name="Groupe 88"><path id="Tracé_97" data-name="Tracé 97" class="cls-1" d="M143,253.28l-8.56-1.05.32-2.57,6,.74,3-24.18,2.57.32Z"/></g><g id="Groupe_89" data-name="Groupe 89"><path id="Tracé_98" data-name="Tracé 98" class="cls-1" d="M131,265.27l-14.28,11.17-1.6-2,12.24-9.57-11.17-14.29L98.84,264.1l5.58,7.14-2,1.6-7.18-9.19,21.43-16.75Z"/></g><g id="Groupe_90" data-name="Groupe 90"><rect id="Rectangle_17" data-name="Rectangle 17" class="cls-1" x="101.49" y="259.08" width="16.84" height="2.59" transform="translate(-137.04 122.93) rotate(-38.02)"/></g><g id="Groupe_91" data-name="Groupe 91"><rect id="Rectangle_18" data-name="Rectangle 18" class="cls-1" x="111.63" y="260.77" width="9.07" height="2.59" transform="translate(-136.76 127.14) rotate(-38.02)"/></g><g id="Groupe_92" data-name="Groupe 92"><rect id="Rectangle_19" data-name="Rectangle 19" class="cls-1" x="114.82" y="264.85" width="9.07" height="2.59" transform="translate(-138.59 129.97) rotate(-38.02)"/></g><g id="Groupe_93" data-name="Groupe 93"><rect id="Rectangle_20" data-name="Rectangle 20" class="cls-1" x="73.6" y="231.8" width="41.45" height="2.59" transform="translate(-123.54 107.55) rotate(-38.02)"/></g><g id="Groupe_94" data-name="Groupe 94"><rect id="Rectangle_21" data-name="Rectangle 21" class="cls-1" x="76.8" y="235.88" width="41.45" height="2.59" transform="translate(-125.38 110.38) rotate(-38.02)"/></g><g id="Groupe_95" data-name="Groupe 95"><rect id="Rectangle_22" data-name="Rectangle 22" class="cls-1" x="79.99" y="239.96" width="41.45" height="2.59" transform="translate(-127.22 113.21) rotate(-38.02)"/></g><g id="Groupe_96" data-name="Groupe 96"><rect id="Rectangle_23" data-name="Rectangle 23" class="cls-1" x="84.96" y="249.23" width="24.61" height="2.59" transform="translate(-133.66 113.06) rotate(-38.02)"/></g><g id="Groupe_97" data-name="Groupe 97"><rect id="Rectangle_24" data-name="Rectangle 24" class="cls-1" x="88.16" y="253.31" width="24.61" height="2.59" transform="translate(-135.49 115.89) rotate(-38.02)"/></g><g id="Groupe_98" data-name="Groupe 98"><rect id="Rectangle_25" data-name="Rectangle 25" class="cls-1" x="112.43" y="216.64" width="2.59" height="2.59" transform="translate(-110.09 116.28) rotate(-38.02)"/></g><g id="Groupe_99" data-name="Groupe 99"><rect id="Rectangle_26" data-name="Rectangle 26" class="cls-1" x="115.62" y="220.72" width="2.59" height="2.59" transform="translate(-111.93 119.11) rotate(-38.02)"/></g><g id="Groupe_100" data-name="Groupe 100"><rect id="Rectangle_27" data-name="Rectangle 27" class="cls-1" x="118.81" y="224.8" width="2.59" height="2.59" transform="translate(-113.77 121.94) rotate(-38.02)"/></g><g id="Groupe_101" data-name="Groupe 101"><rect id="Rectangle_28" data-name="Rectangle 28" class="cls-1" x="108.73" y="239.26" width="2.59" height="2.59" transform="translate(-124.81 118.8) rotate(-38.02)"/></g><g id="Groupe_102" data-name="Groupe 102"><rect id="Rectangle_29" data-name="Rectangle 29" class="cls-1" x="111.93" y="243.34" width="2.59" height="2.59" transform="translate(-126.64 121.63) rotate(-38.02)"/></g></g><g id="Groupe_104" data-name="Groupe 104"><g id="Groupe_35-3" data-name="Groupe 35-3"><rect id="Rectangle_8-3" data-name="Rectangle 8-3" class="cls-1" x="97.16" y="159.16" width="1.78" height="2.11" transform="translate(-13.83 9.33) rotate(-5.09)"/></g><g id="Groupe_36-3" data-name="Groupe 36-3"><path id="Tracé_65-3" data-name="Tracé 65-3" class="cls-1" d="M99,178.84,97.47,163.5l1.77-.17,1.49,15.34Z"/></g><g id="Groupe_37-3" data-name="Groupe 37-3"><path id="Tracé_66-3" data-name="Tracé 66-3" class="cls-1" d="M119.3,180.75l-1.62-.73,7.17-16.15,1.63.73Z"/></g><g id="Groupe_38-3" data-name="Groupe 38-3"><path id="Tracé_67-3" data-name="Tracé 67-3" class="cls-1" d="M127.57,162.23,126,161.5l1.81-4,1.63.73Z"/></g><g id="Groupe_39-3" data-name="Groupe 39-3"><path id="Tracé_68-3" data-name="Tracé 68-3" class="cls-1" d="M60.22,172.16l-3.5-3.38L58,167.49l3.5,3.38Z"/></g><g id="Groupe_40-3" data-name="Groupe 40-3"><rect id="Rectangle_9-3" data-name="Rectangle 9-3" class="cls-1" x="68.59" y="170.28" width="1.78" height="19.63" transform="translate(-106.99 101.87) rotate(-45)"/></g><g id="Groupe_41-3" data-name="Groupe 41-3"><rect id="Rectangle_10-3" data-name="Rectangle 10-3" class="cls-1" x="85.95" y="173.44" width="1.78" height="8.36" transform="translate(-65.72 51.86) rotate(-24.45)"/></g><g id="Groupe_42-3" data-name="Groupe 42-3"><rect id="Rectangle_11-3" data-name="Rectangle 11-3" class="cls-1" x="138.15" y="205.19" width="11.13" height="1.78" transform="translate(-36.31 30.83) rotate(-10.88)"/></g><g id="Groupe_43-3" data-name="Groupe 43-3"><path id="Tracé_69-3" data-name="Tracé 69-3" class="cls-1" d="M129.37,193.3l-1.15-1.36,8.31-7,1.15,1.37Z"/></g><g id="Groupe_44-3" data-name="Groupe 44-3"><path id="Tracé_70-3" data-name="Tracé 70-3" class="cls-1" d="M58.79,211.27l.14-1.78,9.95.79-.14,1.78Z"/></g><g id="Groupe_45-3" data-name="Groupe 45-3"><path id="Tracé_71-3" data-name="Tracé 71-3" class="cls-1" d="M70.76,200.59,57.54,194.7l.73-1.62L71.49,199Z"/></g></g></g><path class="cls-1" d="M124,330.2l2.34,8.77C125.31,335,124.68,332.18,124,330.2Z"/><path class="cls-1" d="M121.05,357.62a2.69,2.69,0,0,1-1.46-.44,2.56,2.56,0,0,1-1.13-1.64l-.12-.5a6,6,0,0,1,.79-4.61,5.69,5.69,0,0,1,1.64-1.71,4.77,4.77,0,0,1-.87-.52,4.74,4.74,0,0,1-.68,1.81,4.63,4.63,0,0,1-3,2.14,3.63,3.63,0,0,1-1.09.14,4.8,4.8,0,0,1-3.9-2.1c-.06.12-.11.25-.18.37a4.62,4.62,0,0,1-2.92,2.14,5.21,5.21,0,0,0-1,.1c-3.66.76-3.72,7.05-3.72,7.11H102c0-.26,0-5.41,2.94-7.64a4.65,4.65,0,0,1-2.35-3v0a4.69,4.69,0,0,1-2.87,2.07l-.06,0a3.17,3.17,0,0,1-1,.11,4.68,4.68,0,0,1-4.54-3.54l-1-3.87,1.43-.36,1,3.87A3.19,3.19,0,0,0,98.6,350a2.07,2.07,0,0,0,.61-.06,3.25,3.25,0,0,0,2.12-1.49,3.15,3.15,0,0,0,.38-2.45l-1.79-7.07,1.43-.36,1.79,7.06h0l.84,3.32a3.18,3.18,0,0,0,3,2.43h0a4.92,4.92,0,0,1,.94-.1,3.3,3.3,0,0,0,2.2-4l-.84-3.32h0l-1.42-5.59h0l-.64-2.55,1.43-.35,2.88,11.46a.08.08,0,0,0,0,0l.35,1.33a3.32,3.32,0,0,0,3.18,2.52,2.19,2.19,0,0,0,.72-.09,3.27,3.27,0,0,0,2.13-1.48,3.39,3.39,0,0,0,.4-2.67l-2.85-11.27,1.43-.37,1.25,5h0l1.37,5.32a3.26,3.26,0,0,0,3.15,2.5,4.76,4.76,0,0,0,.84-.07,3.38,3.38,0,0,0,2.54-3.3,3.33,3.33,0,0,0-.1-.89l-3.79-14.25,1.28-.34c-.92-2.06-2.08-2.69-4.49-2.32-4.24.66-21.29,4.46-27.18,6S81,368.59,81,368.59v64.8h28.37s-4.62-53.47-5.76-63.16a16.39,16.39,0,0,1-2.52.15H96.21v-1.47H101a16.28,16.28,0,0,0,2.31-.14C114.16,366.4,122.21,357.6,124,357l-2.45.55A2.39,2.39,0,0,1,121.05,357.62ZM94.33,370.38H92.39v-1.47h1.94Z"/><path class="cls-1" d="M126.36,339l1.09,4.1a5,5,0,0,1-3.58,6,5.05,5.05,0,0,1-.67.06v.09a4.44,4.44,0,0,0-2.84,2,4.51,4.51,0,0,0-.6,3.47l.12.52a1.16,1.16,0,0,0,.49.73,1.26,1.26,0,0,0,.89.16l2.44-.55L124,357c2.35-.54,8-.59,8.18-8.18l-2.55-8.17S130.55,340.48,126.36,339Z"/><path class="cls-1" d="M103.35,368.77l.16,1.05A7.82,7.82,0,0,0,103.35,368.77Z"/><path class="cls-1" d="M123.65,328.82l-.14,0a12,12,0,0,1,.51,1.35Z"/><polygon class="cls-1" points="126.36 338.97 126.36 338.97 126.36 338.97 126.36 338.97"/><path class="cls-1" d="M103.57,370.23l-.06-.41c0,.13,0,.26,0,.41Z"/><rect class="cls-1" x="102.3" y="303.61" width="1.47" height="1.75" transform="translate(-51.74 22.75) rotate(-10.09)"/><polygon class="cls-1" points="105.14 319.76 106.58 319.49 104.25 306.96 102.8 307.23 105.14 319.76"/><polygon class="cls-1" points="126.78 306.04 125.39 305.56 120.64 319.38 122.03 319.87 126.78 306.04"/><polygon class="cls-1" points="128.72 300.58 127.33 300.1 126.12 303.54 127.51 304.02 128.72 300.58"/><polygon class="cls-1" points="73.66 315.9 70.53 313.37 69.6 314.52 72.73 317.04 73.66 315.9"/><rect class="cls-1" x="80.19" y="314.8" width="1.47" height="16.23" transform="translate(-218.43 177.29) rotate(-49.99)"/><rect class="cls-1" x="94.33" y="316.17" width="1.47" height="6.92" transform="translate(-144.82 88) rotate(-29.44)"/><rect class="cls-1" x="139.37" y="338.25" width="9.21" height="1.47" transform="translate(-87.22 52.3) rotate(-15.87)"/><polygon class="cls-1" points="130.19 328.45 131.23 329.49 137.58 323.16 136.54 322.12 130.19 328.45"/><polygon class="cls-1" points="82.61 347.83 74.36 347.9 74.37 349.37 82.62 349.31 82.61 347.83"/><polygon class="cls-1" points="83.94 338.32 72.63 334.42 72.15 335.81 83.46 339.71 83.94 338.32"/><path d="M200.51,111.33V94.82H203v14.36h7.48v2.15Z"/><path d="M218.46,111.58a6,6,0,0,1-3.15-.79,5.26,5.26,0,0,1-2-2.22,8.15,8.15,0,0,1,0-6.7,5.4,5.4,0,0,1,2-2.27,5.51,5.51,0,0,1,3-.81,5.8,5.8,0,0,1,2.65.62,4.82,4.82,0,0,1,2,2,7.16,7.16,0,0,1,.79,3.61v.85H215a3.88,3.88,0,0,0,1,2.76,3.74,3.74,0,0,0,4.29.52,2.46,2.46,0,0,0,1.08-1.32l2.28.41a4.2,4.2,0,0,1-1.78,2.43A5.92,5.92,0,0,1,218.46,111.58ZM215,104.06h6.44a3.38,3.38,0,0,0-.86-2.35,2.88,2.88,0,0,0-2.25-.93,3.17,3.17,0,0,0-1.7.45,3.39,3.39,0,0,0-1.15,1.2A3.68,3.68,0,0,0,215,104.06Z"/><path d="M235.73,102l-2.18.39a2.66,2.66,0,0,0-.78-1.14,2.44,2.44,0,0,0-1.7-.52,3.07,3.07,0,0,0-1.71.45,1.35,1.35,0,0,0-.68,1.18,1.19,1.19,0,0,0,.45,1,4,4,0,0,0,1.49.62l2,.45q3.38.78,3.38,3.35a3.19,3.19,0,0,1-.64,2,4.2,4.2,0,0,1-1.78,1.36,6.58,6.58,0,0,1-2.64.49,5.93,5.93,0,0,1-3.39-.89,3.77,3.77,0,0,1-1.61-2.54l2.32-.35a2.39,2.39,0,0,0,2.66,1.84,3.26,3.26,0,0,0,1.9-.5,1.45,1.45,0,0,0,.71-1.21c0-.79-.58-1.32-1.75-1.57l-2.1-.46a4.93,4.93,0,0,1-2.56-1.26,3.05,3.05,0,0,1-.82-2.19,3.12,3.12,0,0,1,.61-1.92,3.94,3.94,0,0,1,1.69-1.28,6.23,6.23,0,0,1,2.48-.46,5.13,5.13,0,0,1,3.16.87A4.08,4.08,0,0,1,235.73,102Z"/><path d="M250,111.58a6,6,0,0,1-3.15-.79,5.26,5.26,0,0,1-2-2.22,8.26,8.26,0,0,1,0-6.7,5.4,5.4,0,0,1,2-2.27,5.51,5.51,0,0,1,3-.81,5.8,5.8,0,0,1,2.65.62,4.82,4.82,0,0,1,2,2,7.16,7.16,0,0,1,.79,3.61v.85h-8.8a3.88,3.88,0,0,0,1,2.76,3.74,3.74,0,0,0,4.29.52,2.46,2.46,0,0,0,1.08-1.32l2.28.41a4.2,4.2,0,0,1-1.78,2.43A5.9,5.9,0,0,1,250,111.58Zm-3.48-7.52h6.43a3.38,3.38,0,0,0-.86-2.35,2.88,2.88,0,0,0-2.25-.93,3.17,3.17,0,0,0-1.7.45,3.39,3.39,0,0,0-1.15,1.2A3.54,3.54,0,0,0,246.49,104.06Z"/><path d="M260.37,104v7.35H258V99h2.32v2h.15a3.6,3.6,0,0,1,1.34-1.58,4.21,4.21,0,0,1,2.31-.59,4.08,4.08,0,0,1,3.06,1.18,4.79,4.79,0,0,1,1.16,3.48v7.88h-2.41v-7.59a3,3,0,0,0-.7-2.1,2.49,2.49,0,0,0-1.93-.77,2.8,2.8,0,0,0-2.07.81A3.12,3.12,0,0,0,260.37,104Z"/><path d="M277.3,99v1.93h-2.54v6.81q0,1.05.45,1.35a1.75,1.75,0,0,0,1,.31,3.49,3.49,0,0,0,.5,0l.34-.07.44,2a3.89,3.89,0,0,1-.6.17,5.08,5.08,0,0,1-1,.09,4.2,4.2,0,0,1-1.77-.34,3,3,0,0,1-1.33-1.09,3.24,3.24,0,0,1-.51-1.87v-7.31h-1.81V99h1.81V96h2.41v3Z"/><path d="M280,111.33V99h2.33v2h.13a3,3,0,0,1,1.19-1.57,3.37,3.37,0,0,1,1.95-.58,3.26,3.26,0,0,1,.92.12,2.51,2.51,0,0,1,.7.33l-.77,2a1.78,1.78,0,0,0-.49-.18,3.2,3.2,0,0,0-2.71.72,2.63,2.63,0,0,0-.84,2v7.56Z"/><path d="M293.89,111.58a6,6,0,0,1-3.14-.79,5.34,5.34,0,0,1-2-2.22,8.26,8.26,0,0,1,0-6.7,5.46,5.46,0,0,1,2-2.27,5.53,5.53,0,0,1,3-.81,5.84,5.84,0,0,1,2.66.62,4.93,4.93,0,0,1,2,2,7.27,7.27,0,0,1,.78,3.61v.85h-8.8a3.88,3.88,0,0,0,1,2.76,3.35,3.35,0,0,0,2.51,1,3.41,3.41,0,0,0,1.78-.45,2.44,2.44,0,0,0,1.07-1.32l2.28.41a4.14,4.14,0,0,1-1.77,2.43A6,6,0,0,1,293.89,111.58Zm-3.48-7.52h6.43a3.37,3.37,0,0,0-.85-2.35,2.91,2.91,0,0,0-2.25-.93,3.21,3.21,0,0,0-1.71.45,3.47,3.47,0,0,0-1.15,1.2A3.67,3.67,0,0,0,290.41,104.06Z"/><path d="M301.89,116V99h2.35v2h.2a9.66,9.66,0,0,1,.61-.89,3.33,3.33,0,0,1,1.1-.89,3.83,3.83,0,0,1,1.85-.38,4.84,4.84,0,0,1,2.67.75,5.21,5.21,0,0,1,1.85,2.19,8,8,0,0,1,.68,3.43,8,8,0,0,1-.67,3.44,5.1,5.1,0,0,1-1.84,2.2,4.7,4.7,0,0,1-2.67.77,3.89,3.89,0,0,1-1.83-.38,3.53,3.53,0,0,1-1.12-.88,6.9,6.9,0,0,1-.63-.91h-.14V116Zm2.36-10.83a5.44,5.44,0,0,0,.84,3.16,2.74,2.74,0,0,0,2.39,1.22,2.84,2.84,0,0,0,1.81-.58,3.47,3.47,0,0,0,1.1-1.57,6.25,6.25,0,0,0,.37-2.23,6.36,6.36,0,0,0-.36-2.21,3.42,3.42,0,0,0-1.1-1.53,2.85,2.85,0,0,0-1.82-.57,2.76,2.76,0,0,0-2.4,1.18A5.37,5.37,0,0,0,304.25,105.14Z"/><path d="M315.9,111.33V99h2.33v2h.13a3,3,0,0,1,1.19-1.57,3.41,3.41,0,0,1,1.95-.58l.54,0a4.14,4.14,0,0,1,.48,0v2.3L322,101a6,6,0,0,0-.74,0,3,3,0,0,0-2.12.78,2.65,2.65,0,0,0-.84,2v7.56Z"/><path d="M325.84,97a1.49,1.49,0,0,1-1.08-.43,1.37,1.37,0,0,1,0-2,1.59,1.59,0,0,1,2.15,0,1.37,1.37,0,0,1,0,2A1.49,1.49,0,0,1,325.84,97Zm-1.22,14.29V99H327v12.38Z"/><path d="M339.55,102l-2.18.39a2.66,2.66,0,0,0-.78-1.14,2.44,2.44,0,0,0-1.7-.52,3.07,3.07,0,0,0-1.71.45,1.35,1.35,0,0,0-.68,1.18,1.19,1.19,0,0,0,.45,1,4,4,0,0,0,1.49.62l2,.45q3.38.78,3.38,3.35a3.19,3.19,0,0,1-.64,2,4.26,4.26,0,0,1-1.78,1.36,6.58,6.58,0,0,1-2.64.49,5.93,5.93,0,0,1-3.39-.89,3.78,3.78,0,0,1-1.62-2.54l2.33-.35a2.38,2.38,0,0,0,2.66,1.84,3.29,3.29,0,0,0,1.9-.5,1.45,1.45,0,0,0,.71-1.21c0-.79-.59-1.32-1.75-1.57l-2.1-.46a4.93,4.93,0,0,1-2.56-1.26,3.05,3.05,0,0,1-.82-2.19,3.12,3.12,0,0,1,.61-1.92,3.94,3.94,0,0,1,1.69-1.28,6.23,6.23,0,0,1,2.48-.46,5.13,5.13,0,0,1,3.16.87A4.08,4.08,0,0,1,339.55,102Z"/><path d="M347.77,111.58a6,6,0,0,1-3.14-.79,5.34,5.34,0,0,1-2-2.22,8.26,8.26,0,0,1,0-6.7,5.46,5.46,0,0,1,2-2.27,5.53,5.53,0,0,1,3-.81,5.84,5.84,0,0,1,2.66.62,4.93,4.93,0,0,1,2,2,7.27,7.27,0,0,1,.78,3.61v.85h-8.8a3.88,3.88,0,0,0,1,2.76,3.35,3.35,0,0,0,2.51,1,3.41,3.41,0,0,0,1.78-.45,2.44,2.44,0,0,0,1.07-1.32l2.28.41a4.14,4.14,0,0,1-1.77,2.43A6,6,0,0,1,347.77,111.58Zm-3.48-7.52h6.43a3.37,3.37,0,0,0-.85-2.35,2.91,2.91,0,0,0-2.25-.93,3.21,3.21,0,0,0-1.71.45,3.47,3.47,0,0,0-1.15,1.2A3.67,3.67,0,0,0,344.29,104.06Z"/><path d="M365.05,102l-2.19.39a2.72,2.72,0,0,0-.77-1.14,2.44,2.44,0,0,0-1.7-.52,3.1,3.1,0,0,0-1.72.45,1.37,1.37,0,0,0-.68,1.18,1.22,1.22,0,0,0,.46,1,3.9,3.9,0,0,0,1.49.62l2,.45q3.39.78,3.39,3.35a3.19,3.19,0,0,1-.64,2,4.26,4.26,0,0,1-1.78,1.36,6.58,6.58,0,0,1-2.64.49,6,6,0,0,1-3.4-.89,3.77,3.77,0,0,1-1.61-2.54l2.33-.35a2.38,2.38,0,0,0,2.66,1.84,3.23,3.23,0,0,0,1.89-.5,1.43,1.43,0,0,0,.71-1.21c0-.79-.58-1.32-1.75-1.57L359,105.9a4.89,4.89,0,0,1-2.56-1.26,3.06,3.06,0,0,1-.83-2.19,3.13,3.13,0,0,1,.62-1.92,3.89,3.89,0,0,1,1.69-1.28,6.18,6.18,0,0,1,2.47-.46,5.11,5.11,0,0,1,3.16.87A4.1,4.1,0,0,1,365.05,102Z"/><path d="M379.73,99v1.93h-2.54v6.81c0,.7.15,1.15.44,1.35a1.77,1.77,0,0,0,1,.31,3.77,3.77,0,0,0,.51,0l.34-.07.43,2a3.89,3.89,0,0,1-.6.17,5.05,5.05,0,0,1-1,.09,4.22,4.22,0,0,1-1.78-.34,3,3,0,0,1-1.33-1.09,3.24,3.24,0,0,1-.5-1.87v-7.31H373V99h1.82V96h2.41v3Z"/><path d="M387.59,111.58a6,6,0,0,1-3.14-.79,5.34,5.34,0,0,1-2-2.22,8.26,8.26,0,0,1,0-6.7,5.32,5.32,0,0,1,5-3.08,5.84,5.84,0,0,1,2.66.62,4.82,4.82,0,0,1,2,2,7.26,7.26,0,0,1,.79,3.61v.85H384.1a3.88,3.88,0,0,0,1,2.76,3.74,3.74,0,0,0,4.29.52,2.4,2.4,0,0,0,1.07-1.32l2.28.41a4.14,4.14,0,0,1-1.77,2.43A6,6,0,0,1,387.59,111.58Zm-3.48-7.52h6.43a3.37,3.37,0,0,0-.85-2.35,2.88,2.88,0,0,0-2.25-.93,3.15,3.15,0,0,0-1.7.45,3.5,3.5,0,0,0-1.16,1.2A3.67,3.67,0,0,0,384.11,104.06Zm2.23-6.76,1.88-3.72h2.54l-2.49,3.72Z"/><path d="M395.59,111.33V99h2.31v2h.16a3.23,3.23,0,0,1,1.26-1.6,3.8,3.8,0,0,1,2.11-.57,3.56,3.56,0,0,1,2.08.58,3.42,3.42,0,0,1,1.25,1.59h.12a3.61,3.61,0,0,1,1.42-1.58,4.26,4.26,0,0,1,2.3-.59,3.72,3.72,0,0,1,2.75,1.06,4.25,4.25,0,0,1,1.07,3.18v8.3H410v-8.08a2.25,2.25,0,0,0-.68-1.82,2.46,2.46,0,0,0-1.64-.56,2.36,2.36,0,0,0-1.83.72,2.65,2.65,0,0,0-.65,1.85v7.89H402.8V103.1a2.19,2.19,0,0,0-.62-1.62,2.25,2.25,0,0,0-1.64-.61,2.37,2.37,0,0,0-1.78.79,2.79,2.79,0,0,0-.76,2v7.63Z"/><path d="M420.86,111.58a5.72,5.72,0,0,1-3-.8,5.4,5.4,0,0,1-2-2.24,8.18,8.18,0,0,1,0-6.71,5.43,5.43,0,0,1,2-2.25,6.24,6.24,0,0,1,6.08,0,5.38,5.38,0,0,1,2,2.25,8.28,8.28,0,0,1,0,6.71,5.36,5.36,0,0,1-2,2.24A5.67,5.67,0,0,1,420.86,111.58Zm0-2a2.85,2.85,0,0,0,1.87-.6,3.51,3.51,0,0,0,1.1-1.59,6.81,6.81,0,0,0,0-4.37,3.54,3.54,0,0,0-1.1-1.6,2.85,2.85,0,0,0-1.87-.6,2.9,2.9,0,0,0-1.88.6,3.62,3.62,0,0,0-1.1,1.6,6.64,6.64,0,0,0,0,4.37A3.59,3.59,0,0,0,419,109,2.9,2.9,0,0,0,420.87,109.56Z"/><path d="M430.53,97a1.47,1.47,0,0,1-1.07-.43,1.37,1.37,0,0,1,0-2,1.5,1.5,0,0,1,1.07-.42,1.54,1.54,0,0,1,1.08.42,1.37,1.37,0,0,1,0,2A1.51,1.51,0,0,1,430.53,97Zm-1.21,14.29V99h2.41v12.38Z"/><path d="M440.16,116.21a6.37,6.37,0,0,1-3.49-.83,4.52,4.52,0,0,1-1.77-1.95l2.07-.86a4.85,4.85,0,0,0,.58.73,3,3,0,0,0,1,.68,4,4,0,0,0,1.63.28,3.72,3.72,0,0,0,2.27-.66,2.42,2.42,0,0,0,.89-2.09v-2.44h-.15a5,5,0,0,1-.62.88,3.46,3.46,0,0,1-1.12.84,4.1,4.1,0,0,1-1.85.35,5.09,5.09,0,0,1-2.63-.69,4.78,4.78,0,0,1-1.86-2,7.43,7.43,0,0,1-.68-3.33,7.79,7.79,0,0,1,.67-3.39A5.12,5.12,0,0,1,437,99.54a4.89,4.89,0,0,1,2.67-.75,3.91,3.91,0,0,1,1.87.38,3.48,3.48,0,0,1,1.11.89,8,8,0,0,1,.61.89h.17V99h2.37V111.6a4.12,4.12,0,0,1-2.75,4.11A7.73,7.73,0,0,1,440.16,116.21Zm0-7.07a2.84,2.84,0,0,0,2.4-1.08,4.78,4.78,0,0,0,.84-3,5.19,5.19,0,0,0-.83-3,2.74,2.74,0,0,0-2.41-1.18,2.89,2.89,0,0,0-1.81.56,3.43,3.43,0,0,0-1.09,1.52,5.84,5.84,0,0,0-.37,2.15,4.89,4.89,0,0,0,.83,3A2.83,2.83,0,0,0,440.13,109.14Z"/><path d="M451.39,104v7.35H449V99h2.31v2h.15a3.62,3.62,0,0,1,1.35-1.58,4.21,4.21,0,0,1,2.31-.59,4.11,4.11,0,0,1,3.06,1.18,4.79,4.79,0,0,1,1.15,3.48v7.88H456.9v-7.59a3,3,0,0,0-.7-2.1,2.49,2.49,0,0,0-1.93-.77,2.84,2.84,0,0,0-2.07.81A3.12,3.12,0,0,0,451.39,104Z"/><path d="M467.87,111.58a6,6,0,0,1-3.14-.79,5.34,5.34,0,0,1-2-2.22,8.26,8.26,0,0,1,0-6.7,5.32,5.32,0,0,1,5-3.08,5.84,5.84,0,0,1,2.66.62,4.82,4.82,0,0,1,2,2,7.27,7.27,0,0,1,.78,3.61v.85h-8.8a3.88,3.88,0,0,0,1,2.76,3.74,3.74,0,0,0,4.29.52,2.4,2.4,0,0,0,1.07-1.32l2.28.41a4.14,4.14,0,0,1-1.77,2.43A6,6,0,0,1,467.87,111.58Zm-3.48-7.52h6.43a3.37,3.37,0,0,0-.85-2.35,2.91,2.91,0,0,0-2.25-.93,3.21,3.21,0,0,0-1.71.45,3.47,3.47,0,0,0-1.15,1.2A3.67,3.67,0,0,0,464.39,104.06Z"/><path d="M478.28,104v7.35h-2.41V99h2.31v2h.16a3.54,3.54,0,0,1,1.34-1.58,4.21,4.21,0,0,1,2.31-.59,4.08,4.08,0,0,1,3.06,1.18,4.79,4.79,0,0,1,1.15,3.48v7.88h-2.41v-7.59a3,3,0,0,0-.7-2.1,2.49,2.49,0,0,0-1.92-.77,2.84,2.84,0,0,0-2.08.81A3.12,3.12,0,0,0,478.28,104Z"/><path d="M495.21,99v1.93h-2.54v6.81q0,1.05.45,1.35a1.72,1.72,0,0,0,1,.31,3.77,3.77,0,0,0,.51,0l.34-.07.43,2a3.89,3.89,0,0,1-.6.17,5.05,5.05,0,0,1-1,.09,4.25,4.25,0,0,1-1.78-.34,3,3,0,0,1-1.33-1.09,3.32,3.32,0,0,1-.5-1.87v-7.31h-1.82V99h1.82V96h2.41v3Z"/><path d="M215,225.16h-2.52a3.77,3.77,0,0,0-1.5-2.47,4.65,4.65,0,0,0-2.78-.85,4.75,4.75,0,0,0-2.55.71,4.85,4.85,0,0,0-1.77,2.1,7.89,7.89,0,0,0-.65,3.39,8.07,8.07,0,0,0,.65,3.41,4.85,4.85,0,0,0,1.78,2.09,4.9,4.9,0,0,0,5.3-.14,3.72,3.72,0,0,0,1.52-2.42H215a6.62,6.62,0,0,1-1.19,2.87,6.33,6.33,0,0,1-2.38,2,7.28,7.28,0,0,1-3.25.7,7.18,7.18,0,0,1-3.82-1,7,7,0,0,1-2.64-2.92,9.84,9.84,0,0,1-1-4.54,10,10,0,0,1,1-4.54,7,7,0,0,1,6.46-3.94,7.59,7.59,0,0,1,3.19.66,6.3,6.3,0,0,1,2.39,1.92A6.56,6.56,0,0,1,215,225.16Z"/><path d="M223,236.55a5.72,5.72,0,0,1-3-.8,5.4,5.4,0,0,1-2-2.24,7.38,7.38,0,0,1-.72-3.35,7.5,7.5,0,0,1,.72-3.37,5.46,5.46,0,0,1,2-2.24,6.26,6.26,0,0,1,6.09,0,5.46,5.46,0,0,1,2,2.24,7.63,7.63,0,0,1,.71,3.37,7.51,7.51,0,0,1-.71,3.35,5.4,5.4,0,0,1-2,2.24A5.73,5.73,0,0,1,223,236.55Zm0-2a2.85,2.85,0,0,0,1.87-.59,3.51,3.51,0,0,0,1.1-1.59,6.81,6.81,0,0,0,0-4.37,3.49,3.49,0,0,0-1.1-1.6,2.85,2.85,0,0,0-1.87-.6,2.9,2.9,0,0,0-1.88.6A3.56,3.56,0,0,0,220,228a6.64,6.64,0,0,0,0,4.37,3.59,3.59,0,0,0,1.1,1.59A2.9,2.9,0,0,0,223,234.52Z"/><path d="M233.86,229v7.35h-2.41V223.92h2.31v2h.15a3.62,3.62,0,0,1,1.35-1.58,4.66,4.66,0,0,1,5.37.59,4.79,4.79,0,0,1,1.15,3.48v7.88h-2.41v-7.59a3,3,0,0,0-.7-2.11,2.52,2.52,0,0,0-1.93-.76,2.82,2.82,0,0,0-2.07.81A3.12,3.12,0,0,0,233.86,229Z"/><path d="M250.79,223.92v1.93h-2.54v6.81c0,.7.15,1.15.44,1.35a1.84,1.84,0,0,0,1,.3,2.64,2.64,0,0,0,.51,0l.34-.06.43,2a3.89,3.89,0,0,1-.6.17,6,6,0,0,1-1,.09,4.22,4.22,0,0,1-1.78-.34,3,3,0,0,1-1.33-1.1,3.19,3.19,0,0,1-.5-1.86v-7.31H244v-1.93h1.82v-3h2.41v3Z"/><path d="M258.65,236.55a6.07,6.07,0,0,1-3.14-.79,5.34,5.34,0,0,1-2-2.22,7.51,7.51,0,0,1-.71-3.35,7.62,7.62,0,0,1,.71-3.36,5.33,5.33,0,0,1,5-3.07,5.84,5.84,0,0,1,2.66.62,4.82,4.82,0,0,1,2,2A7.24,7.24,0,0,1,264,230v.85h-8.81a4,4,0,0,0,1,2.76,3.74,3.74,0,0,0,4.29.52,2.4,2.4,0,0,0,1.07-1.32l2.28.41a4.14,4.14,0,0,1-1.77,2.43A6,6,0,0,1,258.65,236.55ZM255.17,229h6.43a3.37,3.37,0,0,0-.85-2.35,2.88,2.88,0,0,0-2.25-.93,3.15,3.15,0,0,0-1.7.45,3.5,3.5,0,0,0-1.16,1.2A3.67,3.67,0,0,0,255.17,229Z"/><path d="M269.06,229v7.35h-2.41V223.92H269v2h.16a3.54,3.54,0,0,1,1.34-1.58,4.13,4.13,0,0,1,2.31-.59,4.08,4.08,0,0,1,3.06,1.18,4.79,4.79,0,0,1,1.15,3.48v7.88h-2.41v-7.59a3,3,0,0,0-.7-2.11,2.5,2.5,0,0,0-1.92-.76,2.8,2.8,0,0,0-2.07.81A3.08,3.08,0,0,0,269.06,229Z"/><path d="M288.05,231.16v-7.24h2.42V236.3H288.1v-2.15H288a3.82,3.82,0,0,1-1.37,1.65,3.93,3.93,0,0,1-2.33.66,3.87,3.87,0,0,1-2.92-1.18,4.84,4.84,0,0,1-1.14-3.49v-7.87h2.41v7.58a2.82,2.82,0,0,0,.7,2,2.38,2.38,0,0,0,1.82.75,3.07,3.07,0,0,0,1.35-.34,2.9,2.9,0,0,0,1.12-1A3,3,0,0,0,288.05,231.16Z"/><path d="M304.93,236.55a5.72,5.72,0,0,1-3-.8,5.4,5.4,0,0,1-2-2.24,7.38,7.38,0,0,1-.72-3.35,7.5,7.5,0,0,1,.72-3.37,5.46,5.46,0,0,1,2-2.24,6.24,6.24,0,0,1,6.08,0,5.42,5.42,0,0,1,2,2.24,7.63,7.63,0,0,1,.71,3.37,7.51,7.51,0,0,1-.71,3.35,5.36,5.36,0,0,1-2,2.24A5.67,5.67,0,0,1,304.93,236.55Zm0-2a2.85,2.85,0,0,0,1.87-.59,3.51,3.51,0,0,0,1.1-1.59,6.81,6.81,0,0,0,0-4.37,3.49,3.49,0,0,0-1.1-1.6,2.85,2.85,0,0,0-1.87-.6,2.9,2.9,0,0,0-1.88.6A3.56,3.56,0,0,0,302,228a6.64,6.64,0,0,0,0,4.37,3.59,3.59,0,0,0,1.1,1.59A2.9,2.9,0,0,0,304.94,234.52Z"/><path d="M313.39,240.94v-17h2.35v2h.2a9.66,9.66,0,0,1,.61-.89,3.33,3.33,0,0,1,1.1-.89,3.83,3.83,0,0,1,1.85-.38,4.84,4.84,0,0,1,2.67.75A5.21,5.21,0,0,1,324,226.7a8,8,0,0,1,.68,3.43,8.21,8.21,0,0,1-.67,3.44,5.16,5.16,0,0,1-1.84,2.2,4.77,4.77,0,0,1-2.67.77,4,4,0,0,1-1.84-.38,3.48,3.48,0,0,1-1.11-.89,6.88,6.88,0,0,1-.63-.9h-.14v6.57Zm2.36-10.83a5.44,5.44,0,0,0,.84,3.16,2.73,2.73,0,0,0,2.39,1.21,2.84,2.84,0,0,0,1.81-.57,3.47,3.47,0,0,0,1.1-1.57,6.29,6.29,0,0,0,.37-2.23,6.36,6.36,0,0,0-.36-2.21,3.42,3.42,0,0,0-1.1-1.53,2.85,2.85,0,0,0-1.82-.57,2.76,2.76,0,0,0-2.4,1.18A5.37,5.37,0,0,0,315.75,230.11Z"/><path d="M332.73,236.55a6.07,6.07,0,0,1-3.14-.79,5.34,5.34,0,0,1-2-2.22,7.51,7.51,0,0,1-.71-3.35,7.62,7.62,0,0,1,.71-3.36,5.33,5.33,0,0,1,5-3.07,5.84,5.84,0,0,1,2.66.62,4.82,4.82,0,0,1,2,2,7.24,7.24,0,0,1,.79,3.61v.85h-8.81a4,4,0,0,0,1,2.76,3.74,3.74,0,0,0,4.29.52,2.4,2.4,0,0,0,1.07-1.32l2.28.41a4.14,4.14,0,0,1-1.77,2.43A6,6,0,0,1,332.73,236.55ZM329.25,229h6.43a3.37,3.37,0,0,0-.85-2.35,2.88,2.88,0,0,0-2.25-.93,3.15,3.15,0,0,0-1.7.45,3.5,3.5,0,0,0-1.16,1.2A3.67,3.67,0,0,0,329.25,229Z"/><path d="M343.14,229v7.35h-2.41V223.92H343v2h.16a3.54,3.54,0,0,1,1.34-1.58,4.13,4.13,0,0,1,2.31-.59,4.08,4.08,0,0,1,3.06,1.18,4.79,4.79,0,0,1,1.15,3.48v7.88h-2.41v-7.59a3,3,0,0,0-.7-2.11,2.5,2.5,0,0,0-1.92-.76,2.8,2.8,0,0,0-2.07.81A3.08,3.08,0,0,0,343.14,229Z"/><path d="M369.58,226.94l-2.18.39a2.66,2.66,0,0,0-.78-1.14,2.44,2.44,0,0,0-1.7-.52,3.07,3.07,0,0,0-1.71.45,1.34,1.34,0,0,0-.68,1.17,1.19,1.19,0,0,0,.45,1,3.83,3.83,0,0,0,1.49.61l2,.46q3.38.78,3.38,3.35a3.19,3.19,0,0,1-.64,2,4.2,4.2,0,0,1-1.78,1.36,6.76,6.76,0,0,1-2.64.49,5.93,5.93,0,0,1-3.39-.89,3.77,3.77,0,0,1-1.61-2.54l2.32-.35a2.39,2.39,0,0,0,2.66,1.84,3.26,3.26,0,0,0,1.9-.5,1.46,1.46,0,0,0,.71-1.21c0-.79-.59-1.32-1.75-1.58l-2.1-.46a4.85,4.85,0,0,1-2.56-1.25,3.05,3.05,0,0,1-.82-2.19,3.12,3.12,0,0,1,.61-1.92,4,4,0,0,1,1.69-1.29,6.41,6.41,0,0,1,2.48-.45,5.13,5.13,0,0,1,3.16.87A4.08,4.08,0,0,1,369.58,226.94Z"/><path d="M377.68,236.55a5.72,5.72,0,0,1-3-.8,5.4,5.4,0,0,1-2-2.24,7.38,7.38,0,0,1-.72-3.35,7.5,7.5,0,0,1,.72-3.37,5.46,5.46,0,0,1,2-2.24,6.24,6.24,0,0,1,6.08,0,5.42,5.42,0,0,1,2,2.24,7.63,7.63,0,0,1,.71,3.37,7.51,7.51,0,0,1-.71,3.35,5.36,5.36,0,0,1-2,2.24A5.67,5.67,0,0,1,377.68,236.55Zm0-2a2.85,2.85,0,0,0,1.87-.59,3.51,3.51,0,0,0,1.1-1.59,6.81,6.81,0,0,0,0-4.37,3.49,3.49,0,0,0-1.1-1.6,2.85,2.85,0,0,0-1.87-.6,2.9,2.9,0,0,0-1.88.6,3.56,3.56,0,0,0-1.1,1.6,6.64,6.64,0,0,0,0,4.37,3.59,3.59,0,0,0,1.1,1.59A2.9,2.9,0,0,0,377.69,234.52Z"/><path d="M394,231.16v-7.24h2.42V236.3H394v-2.15h-.13a3.82,3.82,0,0,1-1.37,1.65,3.93,3.93,0,0,1-2.33.66,3.87,3.87,0,0,1-2.92-1.18,4.84,4.84,0,0,1-1.14-3.49v-7.87h2.41v7.58a2.82,2.82,0,0,0,.7,2,2.38,2.38,0,0,0,1.82.75,3.07,3.07,0,0,0,1.35-.34,2.9,2.9,0,0,0,1.12-1A3,3,0,0,0,394,231.16Z"/><path d="M399.63,236.3V223.92H402v2h.13a3,3,0,0,1,1.19-1.57,3.37,3.37,0,0,1,2-.58,3.26,3.26,0,0,1,.92.12,2.51,2.51,0,0,1,.7.33l-.77,2a1.78,1.78,0,0,0-.49-.18,3.2,3.2,0,0,0-2.71.72,2.63,2.63,0,0,0-.84,2v7.56Z"/><path d="M413.44,236.55a5.61,5.61,0,0,1-3.09-.82,5.4,5.4,0,0,1-2-2.26,7.59,7.59,0,0,1-.69-3.31,7.48,7.48,0,0,1,.71-3.33,5.37,5.37,0,0,1,2-2.26,5.61,5.61,0,0,1,3-.81,5.89,5.89,0,0,1,2.51.51,4.68,4.68,0,0,1,1.79,1.46,4.47,4.47,0,0,1,.81,2.18h-2.35a2.76,2.76,0,0,0-.88-1.49,2.63,2.63,0,0,0-1.84-.63A3,3,0,0,0,411,227a4.93,4.93,0,0,0-.93,3.16,5.19,5.19,0,0,0,.91,3.21,3,3,0,0,0,2.45,1.19,2.79,2.79,0,0,0,1.76-.57,2.58,2.58,0,0,0,1-1.56h2.35a4.61,4.61,0,0,1-.78,2.14A4.55,4.55,0,0,1,416,236,5.71,5.71,0,0,1,413.44,236.55Z"/><path d="M426.45,236.55a6.07,6.07,0,0,1-3.14-.79,5.34,5.34,0,0,1-2-2.22,7.51,7.51,0,0,1-.71-3.35,7.62,7.62,0,0,1,.71-3.36,5.33,5.33,0,0,1,5-3.07,5.84,5.84,0,0,1,2.66.62,4.93,4.93,0,0,1,2,2,7.24,7.24,0,0,1,.78,3.61v.85H423a3.9,3.9,0,0,0,1,2.76,3.38,3.38,0,0,0,2.5,1,3.42,3.42,0,0,0,1.79-.45,2.44,2.44,0,0,0,1.07-1.32l2.28.41a4.14,4.14,0,0,1-1.77,2.43A6,6,0,0,1,426.45,236.55ZM423,229h6.43a3.37,3.37,0,0,0-.85-2.35,2.91,2.91,0,0,0-2.25-.93,3.21,3.21,0,0,0-1.71.45,3.47,3.47,0,0,0-1.15,1.2A3.67,3.67,0,0,0,423,229Z"/><path d="M201.32,367V350.49h5.88a6.49,6.49,0,0,1,3.19.7,4.6,4.6,0,0,1,1.9,1.91,6.25,6.25,0,0,1,0,5.47,4.65,4.65,0,0,1-1.91,1.92,6.48,6.48,0,0,1-3.18.71h-3.39V367Zm2.49-7.92H207a3.33,3.33,0,0,0,2.64-.92,3.42,3.42,0,0,0,.8-2.32,3.32,3.32,0,0,0-.81-2.31,3.43,3.43,0,0,0-2.66-.9h-3.13Z"/><path d="M215.63,367V354.62H218v2h.13a3,3,0,0,1,1.2-1.58,3.44,3.44,0,0,1,2-.58l.54,0,.48,0v2.31a5,5,0,0,0-.51-.1,6,6,0,0,0-.75-.05,3,3,0,0,0-2.12.79,2.6,2.6,0,0,0-.83,2V367Z"/><path d="M225.57,352.71a1.47,1.47,0,0,1-1.07-.43,1.32,1.32,0,0,1-.45-1,1.37,1.37,0,0,1,.45-1,1.5,1.5,0,0,1,1.07-.42,1.54,1.54,0,0,1,1.08.42,1.37,1.37,0,0,1,.45,1,1.32,1.32,0,0,1-.45,1A1.51,1.51,0,0,1,225.57,352.71ZM224.36,367V354.62h2.41V367Z"/><path d="M235.22,367.25a5.72,5.72,0,0,1-3-.8,5.44,5.44,0,0,1-2-2.23,8.2,8.2,0,0,1,0-6.72,5.34,5.34,0,0,1,2-2.24,6.2,6.2,0,0,1,6.09,0,5.34,5.34,0,0,1,2,2.24,8.2,8.2,0,0,1,0,6.72,5.44,5.44,0,0,1-2,2.23A5.73,5.73,0,0,1,235.22,367.25Zm0-2a2.9,2.9,0,0,0,1.88-.6A3.57,3.57,0,0,0,238.2,363a6.81,6.81,0,0,0,0-4.37,3.6,3.6,0,0,0-1.09-1.6,3.25,3.25,0,0,0-3.76,0,3.62,3.62,0,0,0-1.1,1.6,6.81,6.81,0,0,0,0,4.37,3.59,3.59,0,0,0,1.1,1.59A2.9,2.9,0,0,0,235.23,365.23Z"/><path d="M243.68,367V354.62H246v2h.13a2.93,2.93,0,0,1,1.2-1.58,3.43,3.43,0,0,1,1.94-.58l.54,0a4.14,4.14,0,0,1,.48,0v2.31a4.07,4.07,0,0,0-.51-.1,6,6,0,0,0-.74-.05,3,3,0,0,0-2.12.79,2.61,2.61,0,0,0-.84,2V367Z"/><path d="M253.62,352.71a1.49,1.49,0,0,1-1.08-.43,1.32,1.32,0,0,1-.45-1,1.37,1.37,0,0,1,.45-1,1.59,1.59,0,0,1,2.15,0,1.37,1.37,0,0,1,.45,1,1.32,1.32,0,0,1-.45,1A1.49,1.49,0,0,1,253.62,352.71ZM252.4,367V354.62h2.41V367Z"/><path d="M263.83,354.62v1.93h-2.54v6.81c0,.7.15,1.15.45,1.36a1.82,1.82,0,0,0,1,.3,3.49,3.49,0,0,0,.5,0l.34-.07.44,2a3.89,3.89,0,0,1-.6.17,4.38,4.38,0,0,1-1,.09,4.2,4.2,0,0,1-1.77-.34,3,3,0,0,1-1.33-1.09,3.24,3.24,0,0,1-.51-1.87v-7.31h-1.81v-1.93h1.81v-3h2.41v3Z"/><path d="M271.7,367.25a6,6,0,0,1-3.15-.79,5.32,5.32,0,0,1-2-2.22,8.26,8.26,0,0,1,0-6.7,5.46,5.46,0,0,1,2-2.27,5.53,5.53,0,0,1,3-.81,6,6,0,0,1,2.66.62,4.93,4.93,0,0,1,2,2,7.27,7.27,0,0,1,.78,3.61v.85h-8.8a3.88,3.88,0,0,0,1,2.76,3.34,3.34,0,0,0,2.5,1,3.52,3.52,0,0,0,1.79-.44,2.55,2.55,0,0,0,1.07-1.33l2.28.41a4.23,4.23,0,0,1-1.77,2.43A6,6,0,0,1,271.7,367.25Zm-3.48-7.52h6.43a3.42,3.42,0,0,0-.85-2.35,2.91,2.91,0,0,0-2.25-.93,3.21,3.21,0,0,0-1.71.45,3.39,3.39,0,0,0-1.15,1.2A3.67,3.67,0,0,0,268.22,359.73Zm2.23-6.76,1.88-3.72h2.54L272.38,353Z"/><path d="M289.31,367.27a5,5,0,0,1-2.12-.43,3.62,3.62,0,0,1-1.51-1.28,3.66,3.66,0,0,1-.55-2.06,3.24,3.24,0,0,1,.41-1.73,3,3,0,0,1,1.08-1.07,5.74,5.74,0,0,1,1.53-.6,16.44,16.44,0,0,1,1.73-.3l1.8-.21a2.74,2.74,0,0,0,1-.28.69.69,0,0,0,.32-.63v-.05a2.18,2.18,0,0,0-.6-1.64,2.4,2.4,0,0,0-1.76-.58,3.1,3.1,0,0,0-1.91.53,2.9,2.9,0,0,0-1,1.19l-2.26-.51a4.15,4.15,0,0,1,2-2.43,6.58,6.58,0,0,1,3.09-.73,7.38,7.38,0,0,1,1.57.17,4.86,4.86,0,0,1,1.57.64,3.47,3.47,0,0,1,1.2,1.31,4.55,4.55,0,0,1,.46,2.2V367h-2.35v-1.69H293a3.86,3.86,0,0,1-1.23,1.33A4.12,4.12,0,0,1,289.31,367.27Zm2.42-14.3H289.8l-2.49-3.72h2.54Zm-1.89,12.37a3.38,3.38,0,0,0,1.71-.4,2.69,2.69,0,0,0,1.46-2.41v-1.59a1.7,1.7,0,0,1-.74.3c-.38.08-.78.15-1.21.21l-1,.15a5,5,0,0,0-1.79.55,1.46,1.46,0,0,0-.75,1.38,1.53,1.53,0,0,0,.66,1.35A2.86,2.86,0,0,0,289.84,365.34Z"/><path d="M307.05,350.49V367h-2.41V350.49Z"/><path d="M312.37,350.49V352a5.07,5.07,0,0,1-.56,2.18,5.51,5.51,0,0,1-1.49,1.9l-1.19-.86a9.2,9.2,0,0,0,.82-1.48,4,4,0,0,0,.35-1.72v-1.57Z"/><path d="M316.36,352.71a1.49,1.49,0,0,1-1.08-.43,1.32,1.32,0,0,1-.45-1,1.37,1.37,0,0,1,.45-1,1.59,1.59,0,0,1,2.15,0,1.37,1.37,0,0,1,.45,1,1.32,1.32,0,0,1-.45,1A1.49,1.49,0,0,1,316.36,352.71ZM315.14,367V354.62h2.41V367Z"/><path d="M320.79,367V354.62h2.31v2h.16a3.23,3.23,0,0,1,1.26-1.6,3.8,3.8,0,0,1,2.11-.57,3.56,3.56,0,0,1,2.08.58,3.42,3.42,0,0,1,1.25,1.59h.13a3.53,3.53,0,0,1,1.41-1.58,4.26,4.26,0,0,1,2.3-.59,3.72,3.72,0,0,1,2.75,1.06,4.25,4.25,0,0,1,1.07,3.18V367h-2.41v-8.08a2.25,2.25,0,0,0-.68-1.82,2.46,2.46,0,0,0-1.64-.56,2.36,2.36,0,0,0-1.83.72,2.69,2.69,0,0,0-.65,1.85V367H328v-8.23a2.16,2.16,0,0,0-.63-1.62,2.25,2.25,0,0,0-1.64-.61,2.37,2.37,0,0,0-1.78.79,2.79,2.79,0,0,0-.76,2V367Z"/><path d="M340.85,371.64v-17h2.35v2h.2a8.48,8.48,0,0,1,.61-.9,3.33,3.33,0,0,1,1.1-.89,3.92,3.92,0,0,1,1.85-.38,4.77,4.77,0,0,1,2.67.76,5.12,5.12,0,0,1,1.85,2.18,8,8,0,0,1,.68,3.43,8.18,8.18,0,0,1-.67,3.44,5.19,5.19,0,0,1-1.84,2.21,4.77,4.77,0,0,1-2.67.76,3.84,3.84,0,0,1-1.84-.38A3.6,3.6,0,0,1,344,366a6.9,6.9,0,0,1-.63-.91h-.14v6.57Zm2.36-10.83a5.44,5.44,0,0,0,.84,3.16,2.72,2.72,0,0,0,2.39,1.22,2.86,2.86,0,0,0,1.81-.58,3.49,3.49,0,0,0,1.1-1.57,6.25,6.25,0,0,0,.37-2.23,6.13,6.13,0,0,0-.37-2.21,3.38,3.38,0,0,0-1.09-1.53,2.84,2.84,0,0,0-1.82-.56,2.77,2.77,0,0,0-2.41,1.18A5.31,5.31,0,0,0,343.21,360.81Z"/><path d="M358.46,367.27a5,5,0,0,1-2.12-.43,3.5,3.5,0,0,1-1.51-1.28,3.66,3.66,0,0,1-.55-2.06,3.33,3.33,0,0,1,.4-1.73,3,3,0,0,1,1.09-1.07,5.49,5.49,0,0,1,1.53-.6,16.26,16.26,0,0,1,1.72-.3l1.81-.21a2.68,2.68,0,0,0,1-.28.67.67,0,0,0,.32-.63v-.05a2.21,2.21,0,0,0-.59-1.64,2.41,2.41,0,0,0-1.76-.58,3.15,3.15,0,0,0-1.92.53,3,3,0,0,0-1,1.19l-2.27-.51a4.22,4.22,0,0,1,2-2.43,6.64,6.64,0,0,1,3.09-.73,7.47,7.47,0,0,1,1.58.17,4.81,4.81,0,0,1,1.56.64,3.41,3.41,0,0,1,1.21,1.31,4.55,4.55,0,0,1,.46,2.2V367h-2.35v-1.69h-.1a3.86,3.86,0,0,1-1.23,1.33A4.15,4.15,0,0,1,358.46,367.27Zm.52-1.93a3.42,3.42,0,0,0,1.72-.4,2.75,2.75,0,0,0,1.08-1,2.71,2.71,0,0,0,.38-1.38v-1.59a1.7,1.7,0,0,1-.74.3c-.38.08-.79.15-1.21.21l-1,.15a5.15,5.15,0,0,0-1.8.55,1.47,1.47,0,0,0-.74,1.38,1.53,1.53,0,0,0,.66,1.35A2.85,2.85,0,0,0,359,365.34Z"/><path d="M373,367.25a5.63,5.63,0,0,1-3.09-.82,5.41,5.41,0,0,1-2-2.26,8.22,8.22,0,0,1,0-6.64,5.43,5.43,0,0,1,2-2.26,5.64,5.64,0,0,1,3-.81,5.75,5.75,0,0,1,2.51.52,4.38,4.38,0,0,1,2.6,3.64h-2.35a2.83,2.83,0,0,0-.88-1.5,2.62,2.62,0,0,0-1.84-.63,3,3,0,0,0-2.43,1.16,4.93,4.93,0,0,0-.92,3.16,5.12,5.12,0,0,0,.91,3.21,2.91,2.91,0,0,0,2.44,1.19,2.81,2.81,0,0,0,1.76-.56,2.64,2.64,0,0,0,1-1.57h2.35a4.69,4.69,0,0,1-.78,2.15,4.52,4.52,0,0,1-1.75,1.48A5.71,5.71,0,0,1,373,367.25Z"/><path d="M386.45,354.62v1.93h-2.54v6.81c0,.7.15,1.15.45,1.36a1.78,1.78,0,0,0,1,.3,3.77,3.77,0,0,0,.51,0l.34-.07.43,2a3.89,3.89,0,0,1-.6.17,4.35,4.35,0,0,1-1,.09,4.22,4.22,0,0,1-1.78-.34,3,3,0,0,1-1.33-1.09,3.32,3.32,0,0,1-.5-1.87v-7.31h-1.82v-1.93h1.82v-3h2.41v3Z"/></g></svg>