<svg xmlns="http://www.w3.org/2000/svg" viewBox="0 0 539 370"><defs><style>.cls-1{fill:#ffc843;}</style></defs><g id="Calque_1" data-name="Calque 1"><g id="Groupe_106" data-name="Groupe 106"><path id="Tracé_101" data-name="Tracé 101" class="cls-1" d="M39.17,69.82h9.7V88.14A2.14,2.14,0,0,0,51,90.29H62.83v15.36A2.14,2.14,0,0,0,65,107.79h46.35a2.15,2.15,0,0,0,2.15-2.14V86.35a43.54,43.54,0,0,0,14.39-18.52,2.1,2.1,0,0,0,.72-1.59V64.59a22.66,22.66,0,0,0,4-1.68l1.16,1.17a2.14,2.14,0,0,0,3,0h0l6.93-6.93a2.12,2.12,0,0,0,0-3h0L142.57,53a22.66,22.66,0,0,0,1.68-4h1.65A2.14,2.14,0,0,0,148,46.78h0V37a2.14,2.14,0,0,0-2.14-2.14h-1.65a22.66,22.66,0,0,0-1.68-4l1.17-1.16a2.14,2.14,0,0,0,0-3h0l-6.93-6.93a2.13,2.13,0,0,0-3,0h0l-1.16,1.17a22.66,22.66,0,0,0-4-1.68V17.53a2.14,2.14,0,0,0-2.14-2.14h-9.79a2.13,2.13,0,0,0-2.08,1.66A43.68,43.68,0,0,0,44.05,46.41L37.14,67a2.14,2.14,0,0,0,1.34,2.71,2,2,0,0,0,.69.11Zm79.62-49V19.67h5.51v1.15A2.14,2.14,0,0,0,126,22.91a19.38,19.38,0,0,1,5.89,2.44,2.15,2.15,0,0,0,2.65-.3l.81-.82,3.89,3.9-.81.81a2.15,2.15,0,0,0-.3,2.65,19.3,19.3,0,0,1,2.43,5.88,2.14,2.14,0,0,0,2.09,1.66h1.15v5.51h-1.15a2.15,2.15,0,0,0-2.09,1.66,19.46,19.46,0,0,1-2.43,5.89,2.13,2.13,0,0,0,.3,2.64l.81.82-3.89,3.89-.81-.81a2.14,2.14,0,0,0-2.65-.3A19.36,19.36,0,0,1,126,60.86,2.15,2.15,0,0,0,124.3,63V64.1h-5.51V63a2.13,2.13,0,0,0-1.65-2.09,19.37,19.37,0,0,1-3.4-1.13V54.26a2.14,2.14,0,0,0-2.14-2.14H111a17.27,17.27,0,0,0-.81-1.94l.45-.45a2.12,2.12,0,0,0,0-3h0L105.89,42a2.21,2.21,0,0,0-3,0l-.45.45a14.93,14.93,0,0,0-1.94-.8V41a2.12,2.12,0,0,0-1.09-1.86h1.11a2.14,2.14,0,0,0,2.08-1.66A19.58,19.58,0,0,1,105,31.6a2.15,2.15,0,0,0-.3-2.65l-.81-.81,3.89-3.9.81.81a2.15,2.15,0,0,0,2.65.31,19.13,19.13,0,0,1,5.89-2.44,2.14,2.14,0,0,0,1.65-2.1ZM106,66.9l.08.07-1.7,1.7-.07-.08a2.15,2.15,0,0,0-2.65-.3,12.44,12.44,0,0,1-3.8,1.58A2.14,2.14,0,0,0,96.19,72v.11H93.8V72a2.14,2.14,0,0,0-1.66-2.08,12.6,12.6,0,0,1-3.81-1.58,2.16,2.16,0,0,0-2.65.3l-.07.08L83.92,67,84,66.9a2.12,2.12,0,0,0,.3-2.64,12.58,12.58,0,0,1-1.57-3.81,2.15,2.15,0,0,0-2.09-1.66h-.1V56.4h.1a2.15,2.15,0,0,0,2.09-1.66,12.47,12.47,0,0,1,1.57-3.81,2.14,2.14,0,0,0-.3-2.65l-.07-.07,1.69-1.69.07.07a2.14,2.14,0,0,0,2.65.3,12.47,12.47,0,0,1,3.81-1.57,2.15,2.15,0,0,0,1.66-2.09v-.1h2.39v.1a2.15,2.15,0,0,0,1.66,2.09,12.42,12.42,0,0,1,3.8,1.57,2.13,2.13,0,0,0,2.65-.3l.07-.07,1.7,1.69-.08.07a2.15,2.15,0,0,0-.3,2.65,12.5,12.5,0,0,1,1.58,3.81,2.14,2.14,0,0,0,2.09,1.66h.1v2.39h-.1a2.14,2.14,0,0,0-2.09,1.66,12.6,12.6,0,0,1-1.58,3.81,2.13,2.13,0,0,0,.3,2.64ZM48.19,47.55A1.86,1.86,0,0,0,48.3,47a39.39,39.39,0,0,1,63.42-26.78c-.42.19-.84.39-1.25.61l-1.16-1.17a2.15,2.15,0,0,0-3,0l-6.92,6.93a2.13,2.13,0,0,0,0,3h0l1.16,1.16a23.38,23.38,0,0,0-1.67,4H97.19A2.14,2.14,0,0,0,95.05,37v1.85h-3.4A2.14,2.14,0,0,0,89.51,41v.63a15.53,15.53,0,0,0-1.94.8L87.13,42a2.15,2.15,0,0,0-3,0l-4.73,4.72a2.15,2.15,0,0,0,0,3h0l.45.45a15.53,15.53,0,0,0-.8,1.94h-.64a2.14,2.14,0,0,0-2.14,2.14v6.68a2.14,2.14,0,0,0,2.14,2.14H79a15.53,15.53,0,0,0,.8,1.94l-.45.45a2.14,2.14,0,0,0,0,3h0l4.73,4.72a2.14,2.14,0,0,0,3,0h0l.44-.45a15.53,15.53,0,0,0,1.94.8v.64a2.14,2.14,0,0,0,2.14,2.14h6.68a2.14,2.14,0,0,0,2.14-2.14h0v-.64a14.93,14.93,0,0,0,1.94-.8l.45.45a2.15,2.15,0,0,0,3,0h0l4.72-4.72a2.14,2.14,0,0,0,0-3h0l-.45-.45a16,16,0,0,0,.78-1.87,23,23,0,0,0,3.57,1.44v1.66a2.14,2.14,0,0,0,2.14,2.14h6.29a39.39,39.39,0,0,1-12.85,15.11,2.2,2.2,0,0,0-.91,1.75V103.5H67.12V88.14A2.15,2.15,0,0,0,65,86H53.15V67.67A2.14,2.14,0,0,0,51,65.53H42.15Z"/><path id="Tracé_102" data-name="Tracé 102" class="cls-1" d="M110.89,41.89a10.66,10.66,0,1,0,10.66-10.66h0A10.66,10.66,0,0,0,110.89,41.89Zm10.66-6.38a6.38,6.38,0,1,1-6.38,6.38A6.37,6.37,0,0,1,121.55,35.51Z"/><path id="Tracé_103" data-name="Tracé 103" class="cls-1" d="M95,50.08a7.52,7.52,0,1,0,7.52,7.51h0A7.53,7.53,0,0,0,95,50.08Zm0,10.74a3.23,3.23,0,1,1,3.23-3.23A3.23,3.23,0,0,1,95,60.82Z"/></g><g id="Groupe_132" data-name="Groupe 132"><g id="Groupe_107" data-name="Groupe 107"><path id="Tracé_104" data-name="Tracé 104" class="cls-1" d="M106.18,220.07h-58v-3.8h58.05a2.86,2.86,0,1,0,0-5.71H36.71a5.71,5.71,0,1,1,0-11.42H92.4l16.17-53.36a13.23,13.23,0,0,1,12.75-9.45h22a5.71,5.71,0,0,1,0,11.42h-21.9a1.91,1.91,0,0,0-1.83,1.37l-12.52,42.94L103.4,191l12.53-42.94a5.73,5.73,0,0,1,5.48-4.11H143.3a1.91,1.91,0,0,0,0-3.81h-22a9.48,9.48,0,0,0-9.11,6.76l-17,56.05H36.71a1.91,1.91,0,0,0,0,3.81h69.47a6.66,6.66,0,1,1,0,13.32Z"/></g><g id="Groupe_108" data-name="Groupe 108"><path id="Tracé_105" data-name="Tracé 105" class="cls-1" d="M48.13,242.91a13.33,13.33,0,1,1,13.33-13.32h0A13.34,13.34,0,0,1,48.13,242.91Zm0-22.84a9.52,9.52,0,1,0,9.52,9.52h0a9.53,9.53,0,0,0-9.52-9.52Z"/></g><g id="Groupe_109" data-name="Groupe 109"><path id="Tracé_106" data-name="Tracé 106" class="cls-1" d="M48.13,235.3a5.71,5.71,0,1,1,5.71-5.71A5.71,5.71,0,0,1,48.13,235.3Zm0-7.61a1.9,1.9,0,1,0,1.91,1.9,1.9,1.9,0,0,0-1.91-1.9Z"/></g><g id="Groupe_110" data-name="Groupe 110"><path id="Tracé_107" data-name="Tracé 107" class="cls-1" d="M103.33,242.91a13.33,13.33,0,1,1,13.32-13.32h0A13.34,13.34,0,0,1,103.33,242.91Zm0-22.84a9.52,9.52,0,1,0,9.52,9.52h0a9.54,9.54,0,0,0-9.52-9.52Z"/></g><g id="Groupe_111" data-name="Groupe 111"><rect id="Rectangle_33" data-name="Rectangle 33" class="cls-1" x="127.51" y="194.87" width="13.91" height="3.79"/></g><g id="Groupe_112" data-name="Groupe 112"><rect id="Rectangle_34" data-name="Rectangle 34" class="cls-1" x="118.66" y="206.25" width="11.38" height="3.79"/></g><g id="Groupe_113" data-name="Groupe 113"><rect id="Rectangle_35" data-name="Rectangle 35" class="cls-1" x="123.72" y="220.15" width="13.91" height="3.79"/></g><g id="Groupe_114" data-name="Groupe 114"><path id="Tracé_108" data-name="Tracé 108" class="cls-1" d="M103.33,235.3a5.71,5.71,0,1,1,5.71-5.71A5.71,5.71,0,0,1,103.33,235.3Zm0-7.61a1.9,1.9,0,1,0,1.9,1.9,1.91,1.91,0,0,0-1.9-1.9Z"/></g><g id="Groupe_115" data-name="Groupe 115"><path id="Tracé_109" data-name="Tracé 109" class="cls-1" d="M76.68,201h-3.8V168.68H38.61V201h-3.8V164.88H76.68Z"/></g><g id="Groupe_116" data-name="Groupe 116"><rect id="Rectangle_36" data-name="Rectangle 36" class="cls-1" x="36.48" y="172.11" width="37.93" height="3.79"/></g><g id="Groupe_117" data-name="Groupe 117"><rect id="Rectangle_37" data-name="Rectangle 37" class="cls-1" x="42.8" y="167.05" width="3.79" height="7.59"/></g><g id="Groupe_118" data-name="Groupe 118"><rect id="Rectangle_38" data-name="Rectangle 38" class="cls-1" x="50.39" y="167.05" width="3.79" height="7.59"/></g><g id="Groupe_119" data-name="Groupe 119"><rect id="Rectangle_39" data-name="Rectangle 39" class="cls-1" x="57.98" y="167.05" width="3.79" height="7.59"/></g><g id="Groupe_120" data-name="Groupe 120"><rect id="Rectangle_40" data-name="Rectangle 40" class="cls-1" x="65.56" y="167.05" width="3.79" height="7.59"/></g><g id="Groupe_121" data-name="Groupe 121"><rect id="Rectangle_41" data-name="Rectangle 41" class="cls-1" x="46.6" y="182.22" width="18.96" height="3.79"/></g><g id="Groupe_122" data-name="Groupe 122"><rect id="Rectangle_42" data-name="Rectangle 42" class="cls-1" x="46.6" y="189.81" width="18.96" height="3.79"/></g><g id="Groupe_123" data-name="Groupe 123"><path id="Tracé_110" data-name="Tracé 110" class="cls-1" d="M91.91,136.33H65.26V124.91H91.91Zm-22.84-3.81h19v-3.81h-19Z"/></g><g id="Groupe_124" data-name="Groupe 124"><path id="Tracé_111" data-name="Tracé 111" class="cls-1" d="M63.36,166.78H59.55V150.55A9.46,9.46,0,0,1,64.81,142L71,139v-4.53h3.81v6.88l-8.26,4.13a5.68,5.68,0,0,0-3.16,5.11Z"/></g><g id="Groupe_125" data-name="Groupe 125"><path id="Tracé_112" data-name="Tracé 112" class="cls-1" d="M97.62,195H93.81V150.55a5.71,5.71,0,0,0-3.16-5.11l-8.26-4.13v-6.88H86.2V139L92.36,142a9.46,9.46,0,0,1,5.26,8.51Z"/></g><g id="Groupe_126" data-name="Groupe 126"><path id="Tracé_113" data-name="Tracé 113" class="cls-1" d="M90,163H86.2V151.72l-2.75-1.37,1.69-3.41,2.76,1.38a3.8,3.8,0,0,1,2.11,3.4Z"/></g><g id="Groupe_127" data-name="Groupe 127"><rect id="Rectangle_43" data-name="Rectangle 43" class="cls-1" x="130.04" y="137.97" width="3.79" height="7.59"/></g><g id="Groupe_128" data-name="Groupe 128"><rect id="Rectangle_44" data-name="Rectangle 44" class="cls-1" x="145.21" y="194.87" width="3.79" height="3.79"/></g><g id="Groupe_129" data-name="Groupe 129"><rect id="Rectangle_45" data-name="Rectangle 45" class="cls-1" x="133.83" y="206.25" width="3.79" height="3.79"/></g><g id="Groupe_130" data-name="Groupe 130"><rect id="Rectangle_46" data-name="Rectangle 46" class="cls-1" x="141.42" y="220.15" width="3.79" height="3.79"/></g><g id="Groupe_131" data-name="Groupe 131"><rect id="Rectangle_47" data-name="Rectangle 47" class="cls-1" x="85.79" y="167.05" width="3.79" height="3.79"/></g></g><path id="Tracé_114" data-name="Tracé 114" class="cls-1" d="M141.78,286.86H64.57v-4.12a12.08,12.08,0,1,0-17-1.17,12.92,12.92,0,0,0,1.17,1.17v4.12H38.54A2.1,2.1,0,0,0,36.43,289v20a2.11,2.11,0,0,0,2.11,2.11h7.24a2.12,2.12,0,0,0,1.71-.87,7.86,7.86,0,1,1,1.79,11,8,8,0,0,1-1.79-1.79,2.06,2.06,0,0,0-1.71-.87H38.54a2.1,2.1,0,0,0-2.11,2.1v20a2.11,2.11,0,0,0,2.11,2.11h76.61v4.11a12.08,12.08,0,1,0,17,1.17,12.92,12.92,0,0,0-1.17-1.17v-4.12h10.75a2.1,2.1,0,0,0,2.11-2.11V289a2.1,2.1,0,0,0-2.11-2.11ZM40.64,322.71h4.12a12.07,12.07,0,1,0,1.16-17,11.65,11.65,0,0,0-1.16,1.17H40.64V291.07H50.8a2.1,2.1,0,0,0,2.11-2.1v-7.25A2.1,2.1,0,0,0,52,280a7.86,7.86,0,1,1,9.18,0,2.1,2.1,0,0,0-.87,1.71V289a2.1,2.1,0,0,0,2.1,2.1h25.6V309h0a2.11,2.11,0,0,0,2.11,2.11H97.4a2.13,2.13,0,0,0,1.71-.87,7.86,7.86,0,1,1,1.79,11,8,8,0,0,1-1.79-1.79,2.08,2.08,0,0,0-1.71-.87H90.16a2.1,2.1,0,0,0-2.11,2.1v17.88H40.64Zm99,15.77H128.91a2.11,2.11,0,0,0-2.11,2.11v7.24a2.11,2.11,0,0,0,.88,1.71,7.86,7.86,0,1,1-11,1.79,8,8,0,0,1,1.79-1.79,2.11,2.11,0,0,0,.88-1.71v-7.24a2.11,2.11,0,0,0-2.11-2.11h-25V322.71h4.12a12.08,12.08,0,1,0,1.17-17,10.77,10.77,0,0,0-1.17,1.17H92.27V291.07h47.41Z"/><path d="M190.93,44.83A2.51,2.51,0,0,0,189.8,43a4.4,4.4,0,0,0-2.49-.67,4,4,0,0,0-2.55.74,2.24,2.24,0,0,0-.95,1.85,1.84,1.84,0,0,0,.51,1.35,3.51,3.51,0,0,0,1.24.83,11.77,11.77,0,0,0,1.42.47l1.71.45a11.73,11.73,0,0,1,1.71.56,6.9,6.9,0,0,1,1.63.92,4.24,4.24,0,0,1,1.21,1.41,4.1,4.1,0,0,1,.46,2,4.66,4.66,0,0,1-.76,2.63,5.12,5.12,0,0,1-2.2,1.82,8.38,8.38,0,0,1-3.5.66,7.32,7.32,0,0,1-4.66-1.37,4.85,4.85,0,0,1-1.86-3.74h2.64A2.59,2.59,0,0,0,184.59,55a5,5,0,0,0,2.64.69A4.65,4.65,0,0,0,190,54.9a2.39,2.39,0,0,0,1.1-2,1.85,1.85,0,0,0-.44-1.27,3.19,3.19,0,0,0-1.19-.82,13.16,13.16,0,0,0-1.68-.57l-2.06-.56A8,8,0,0,1,182.4,48,3.78,3.78,0,0,1,181.19,45a4.4,4.4,0,0,1,.81-2.64,5.48,5.48,0,0,1,2.22-1.75,7.8,7.8,0,0,1,3.15-.62,7.5,7.5,0,0,1,3.13.62,5.27,5.27,0,0,1,2.15,1.71,4.44,4.44,0,0,1,.82,2.49Z"/><path d="M197.93,42.59a1.61,1.61,0,0,1-1.14-.45,1.43,1.43,0,0,1-.47-1.07,1.45,1.45,0,0,1,.47-1.08,1.7,1.7,0,0,1,2.28,0,1.45,1.45,0,0,1,.47,1.08,1.43,1.43,0,0,1-.47,1.07A1.61,1.61,0,0,1,197.93,42.59ZM196.65,57.7V44.61h2.54V57.7Z"/><path d="M202.62,57.7V44.61h2.45v2.13h.16a3.37,3.37,0,0,1,1.34-1.69,3.93,3.93,0,0,1,2.22-.61,3.75,3.75,0,0,1,2.2.61,3.54,3.54,0,0,1,1.32,1.69h.14a3.65,3.65,0,0,1,1.49-1.67,4.54,4.54,0,0,1,2.44-.63,4,4,0,0,1,2.91,1.12,4.56,4.56,0,0,1,1.13,3.36V57.7h-2.55V49.16a2.37,2.37,0,0,0-.72-1.93,2.67,2.67,0,0,0-1.74-.59,2.46,2.46,0,0,0-1.93.76,2.84,2.84,0,0,0-.69,2V57.7h-2.54V49a2.25,2.25,0,0,0-.67-1.71,2.34,2.34,0,0,0-1.73-.65,2.54,2.54,0,0,0-1.88.83,3,3,0,0,0-.8,2.16V57.7Z"/><path d="M223.82,62.61v-18h2.49v2.12h.22a6.86,6.86,0,0,1,.64-.94,3.51,3.51,0,0,1,1.16-.95,4.1,4.1,0,0,1,1.95-.4,5.14,5.14,0,0,1,2.83.8,5.31,5.31,0,0,1,1.95,2.31,9.6,9.6,0,0,1,0,7.27,5.48,5.48,0,0,1-1.94,2.33,5,5,0,0,1-2.82.81,4.17,4.17,0,0,1-1.94-.4,3.68,3.68,0,0,1-1.18-.94,6.42,6.42,0,0,1-.66-1h-.16v7Zm2.5-11.46a5.79,5.79,0,0,0,.89,3.35,2.87,2.87,0,0,0,2.53,1.28,3,3,0,0,0,1.91-.61,3.59,3.59,0,0,0,1.16-1.65,7.19,7.19,0,0,0,0-4.7,3.6,3.6,0,0,0-1.16-1.62,3,3,0,0,0-1.92-.6,2.93,2.93,0,0,0-2.55,1.25A5.67,5.67,0,0,0,226.32,51.15Z"/><path d="M241.19,40.25V57.7h-2.55V40.25Z"/><path d="M245.9,42.59a1.58,1.58,0,0,1-1.14-.45,1.4,1.4,0,0,1-.47-1.07,1.42,1.42,0,0,1,.47-1.08,1.61,1.61,0,0,1,1.14-.44A1.64,1.64,0,0,1,247,40a1.43,1.43,0,0,1,.48,1.08,1.41,1.41,0,0,1-.48,1.07A1.6,1.6,0,0,1,245.9,42.59ZM244.61,57.7V44.61h2.55V57.7Z"/><path d="M256.1,58a6,6,0,0,1-3.27-.87,5.68,5.68,0,0,1-2.1-2.39,8.69,8.69,0,0,1,0-7,5.71,5.71,0,0,1,2.11-2.39,6,6,0,0,1,3.21-.86,6.11,6.11,0,0,1,2.66.55,4.86,4.86,0,0,1,1.89,1.54,4.66,4.66,0,0,1,.86,2.31H259a3,3,0,0,0-.94-1.59,2.77,2.77,0,0,0-1.94-.66,3.11,3.11,0,0,0-2.57,1.23,5.22,5.22,0,0,0-1,3.33,5.47,5.47,0,0,0,1,3.4,3.11,3.11,0,0,0,2.59,1.26,2.94,2.94,0,0,0,1.86-.6,2.79,2.79,0,0,0,1-1.65h2.48a4.72,4.72,0,0,1-2.67,3.83A6.11,6.11,0,0,1,256.1,58Z"/><path d="M265.5,42.59a1.61,1.61,0,0,1-1.14-.45,1.43,1.43,0,0,1-.47-1.07,1.45,1.45,0,0,1,.47-1.08,1.65,1.65,0,0,1,1.14-.44,1.62,1.62,0,0,1,1.13.44,1.43,1.43,0,0,1,.48,1.08,1.41,1.41,0,0,1-.48,1.07A1.59,1.59,0,0,1,265.5,42.59ZM264.21,57.7V44.61h2.55V57.7Z"/><path d="M276.3,44.61v2h-2.69v7.21c0,.73.16,1.21.48,1.42a1.84,1.84,0,0,0,1.09.32,2.9,2.9,0,0,0,.54,0l.36-.07.46,2.11a4.3,4.3,0,0,1-.64.17,4.74,4.74,0,0,1-1,.1,4.57,4.57,0,0,1-1.88-.36,3.11,3.11,0,0,1-1.4-1.16,3.37,3.37,0,0,1-.54-2V46.65h-1.91v-2h1.91V41.47h2.55v3.14Z"/><path d="M284.62,58a6.34,6.34,0,0,1-3.33-.84,5.56,5.56,0,0,1-2.15-2.35,7.89,7.89,0,0,1-.75-3.54,8,8,0,0,1,.75-3.55,5.78,5.78,0,0,1,2.11-2.39,5.88,5.88,0,0,1,3.19-.86,6.24,6.24,0,0,1,2.81.66,5.1,5.1,0,0,1,2.15,2.1,7.59,7.59,0,0,1,.83,3.82v.9h-9.3A4.12,4.12,0,0,0,282,54.84a3.58,3.58,0,0,0,2.65,1,3.68,3.68,0,0,0,1.89-.47,2.64,2.64,0,0,0,1.13-1.4l2.41.44A4.43,4.43,0,0,1,288.2,57,6.26,6.26,0,0,1,284.62,58Zm-3.69-8h6.81a3.57,3.57,0,0,0-.91-2.48,3,3,0,0,0-2.38-1,3.28,3.28,0,0,0-1.8.49,3.54,3.54,0,0,0-1.22,1.27A4,4,0,0,0,280.93,50Zm2.37-7.15,2-3.93H288l-2.64,3.93Z"/><path d="M305.07,58a6.32,6.32,0,0,1-3.32-.84,5.58,5.58,0,0,1-2.16-2.35,7.89,7.89,0,0,1-.75-3.54,8,8,0,0,1,.75-3.55,5.66,5.66,0,0,1,5.3-3.25,6.21,6.21,0,0,1,2.81.66,5.18,5.18,0,0,1,2.16,2.1,7.7,7.7,0,0,1,.83,3.82v.9h-9.31a4.13,4.13,0,0,0,1.07,2.92,3.56,3.56,0,0,0,2.65,1,3.67,3.67,0,0,0,1.88-.47,2.56,2.56,0,0,0,1.13-1.4l2.41.44A4.43,4.43,0,0,1,308.65,57,6.24,6.24,0,0,1,305.07,58Zm-3.68-8h6.8a3.61,3.61,0,0,0-.9-2.48,3.06,3.06,0,0,0-2.38-1,3.24,3.24,0,0,0-1.8.49,3.46,3.46,0,0,0-1.22,1.27A3.74,3.74,0,0,0,301.39,50Z"/><path d="M319.64,44.61v2H317v7.21c0,.73.16,1.21.47,1.42a1.89,1.89,0,0,0,1.1.32,3,3,0,0,0,.54,0l.35-.07.46,2.11a3.8,3.8,0,0,1-.63.17,4.88,4.88,0,0,1-1,.1,4.54,4.54,0,0,1-1.88-.36,3.11,3.11,0,0,1-1.4-1.16,3.37,3.37,0,0,1-.54-2V46.65h-1.92v-2h1.92V41.47H317v3.14Z"/><path d="M328.81,62.61v-18h2.48v2.12h.22a6.86,6.86,0,0,1,.64-.94,3.61,3.61,0,0,1,1.16-.95,4.11,4.11,0,0,1,2-.4,5.13,5.13,0,0,1,2.82.8,5.4,5.4,0,0,1,2,2.31,9.72,9.72,0,0,1,0,7.27,5.5,5.5,0,0,1-1.95,2.33,5,5,0,0,1-2.82.81,4.2,4.2,0,0,1-1.94-.4,3.68,3.68,0,0,1-1.18-.94,6.42,6.42,0,0,1-.66-1h-.16v7Zm2.49-11.46a5.79,5.79,0,0,0,.89,3.35,2.87,2.87,0,0,0,2.53,1.28,3,3,0,0,0,1.91-.61,3.6,3.6,0,0,0,1.17-1.65,6.77,6.77,0,0,0,.39-2.37,6.58,6.58,0,0,0-.39-2.33,3.66,3.66,0,0,0-1.15-1.62,3,3,0,0,0-1.93-.6,2.91,2.91,0,0,0-2.54,1.25A5.6,5.6,0,0,0,331.3,51.15Z"/><path d="M343.62,57.7V44.61h2.46v2.08h.14A3.2,3.2,0,0,1,347.48,45a3.64,3.64,0,0,1,2.06-.61,3.48,3.48,0,0,1,1,.13,2.6,2.6,0,0,1,.75.35L350.44,47a2.66,2.66,0,0,0-.52-.19,3.4,3.4,0,0,0-.67-.06,3.06,3.06,0,0,0-2.2.83,2.75,2.75,0,0,0-.88,2.11v8Z"/><path d="M356.87,58a5.22,5.22,0,0,1-2.24-.46A3.75,3.75,0,0,1,353,56.18a3.8,3.8,0,0,1-.59-2.18,3.49,3.49,0,0,1,.43-1.83A3,3,0,0,1,354,51a5.87,5.87,0,0,1,1.61-.63,15.9,15.9,0,0,1,1.83-.32l1.9-.23a2.78,2.78,0,0,0,1.07-.29.73.73,0,0,0,.33-.67v-.06a2.27,2.27,0,0,0-.62-1.72,2.56,2.56,0,0,0-1.86-.62,3.31,3.31,0,0,0-2,.56,3.09,3.09,0,0,0-1,1.27l-2.39-.55A4.39,4.39,0,0,1,355,45.22a7,7,0,0,1,3.27-.78,8.25,8.25,0,0,1,1.66.18,4.9,4.9,0,0,1,1.66.68,3.62,3.62,0,0,1,1.27,1.38,4.8,4.8,0,0,1,.49,2.33V57.7h-2.49V55.91h-.1a4,4,0,0,1-1.3,1.41A4.33,4.33,0,0,1,356.87,58Zm.56-2.05a3.64,3.64,0,0,0,1.81-.41,3,3,0,0,0,1.15-1.1,2.84,2.84,0,0,0,.39-1.45V51.29a1.71,1.71,0,0,1-.78.32c-.4.09-.83.16-1.28.23l-1.09.15a5.44,5.44,0,0,0-1.9.58,1.56,1.56,0,0,0-.79,1.47,1.62,1.62,0,0,0,.7,1.42A3.1,3.1,0,0,0,357.43,55.94Z"/><path d="M372.21,62.86a6.76,6.76,0,0,1-3.69-.88,4.79,4.79,0,0,1-1.87-2.06l2.19-.91a6,6,0,0,0,.61.78,3.12,3.12,0,0,0,1.06.71,4.26,4.26,0,0,0,1.73.3,3.89,3.89,0,0,0,2.39-.7,2.56,2.56,0,0,0,.95-2.21V55.31h-.16a6.84,6.84,0,0,1-.66.93,3.59,3.59,0,0,1-1.18.89,4.39,4.39,0,0,1-2,.37,5.46,5.46,0,0,1-2.78-.72,5.09,5.09,0,0,1-2-2.16,7.61,7.61,0,0,1-.73-3.52,8.34,8.34,0,0,1,.71-3.58,5.43,5.43,0,0,1,2-2.28,5,5,0,0,1,2.82-.8,4.15,4.15,0,0,1,2,.4,3.6,3.6,0,0,1,1.18.95,6.05,6.05,0,0,1,.64.94h.19V44.61h2.5V58a4.52,4.52,0,0,1-.79,2.75,4.6,4.6,0,0,1-2.11,1.6A8.37,8.37,0,0,1,372.21,62.86Zm0-7.47a3,3,0,0,0,2.53-1.15,5.06,5.06,0,0,0,.88-3.17,5.53,5.53,0,0,0-.87-3.23,2.93,2.93,0,0,0-2.54-1.24,3,3,0,0,0-1.92.6,3.62,3.62,0,0,0-1.16,1.6,6.47,6.47,0,0,0-.38,2.27,5.19,5.19,0,0,0,.87,3.12A3,3,0,0,0,372.19,55.39Z"/><path d="M381.54,57.7V44.61H384v2.13h.16a3.42,3.42,0,0,1,1.34-1.69,3.94,3.94,0,0,1,2.23-.61,3.78,3.78,0,0,1,2.2.61,3.67,3.67,0,0,1,1.32,1.69h.13a3.72,3.72,0,0,1,1.5-1.67,4.53,4.53,0,0,1,2.43-.63,3.93,3.93,0,0,1,2.91,1.12,4.56,4.56,0,0,1,1.13,3.36V57.7h-2.55V49.16a2.37,2.37,0,0,0-.72-1.93,2.67,2.67,0,0,0-1.73-.59,2.48,2.48,0,0,0-1.94.76,2.84,2.84,0,0,0-.69,2V57.7h-2.54V49a2.28,2.28,0,0,0-.66-1.71,2.34,2.34,0,0,0-1.73-.65,2.54,2.54,0,0,0-1.88.83,3,3,0,0,0-.81,2.16V57.7Z"/><path d="M406.55,58a5.22,5.22,0,0,1-2.24-.46,3.75,3.75,0,0,1-1.59-1.35,3.8,3.8,0,0,1-.59-2.18,3.49,3.49,0,0,1,.43-1.83A3,3,0,0,1,403.71,51a5.87,5.87,0,0,1,1.61-.63,15.9,15.9,0,0,1,1.83-.32l1.9-.23a2.78,2.78,0,0,0,1.07-.29.73.73,0,0,0,.33-.67v-.06a2.27,2.27,0,0,0-.62-1.72A2.56,2.56,0,0,0,408,46.5a3.31,3.31,0,0,0-2,.56,3.09,3.09,0,0,0-1,1.27l-2.39-.55a4.39,4.39,0,0,1,2.13-2.56,7,7,0,0,1,3.27-.78,8.25,8.25,0,0,1,1.66.18,4.9,4.9,0,0,1,1.66.68,3.62,3.62,0,0,1,1.27,1.38A4.8,4.8,0,0,1,413,49V57.7h-2.49V55.91h-.1a4,4,0,0,1-1.3,1.41A4.33,4.33,0,0,1,406.55,58Zm.56-2.05a3.67,3.67,0,0,0,1.81-.41,3,3,0,0,0,1.15-1.1,2.84,2.84,0,0,0,.39-1.45V51.29a1.71,1.71,0,0,1-.78.32c-.41.09-.83.16-1.28.23l-1.09.15a5.44,5.44,0,0,0-1.9.58,1.56,1.56,0,0,0-.79,1.47,1.62,1.62,0,0,0,.7,1.42A3.1,3.1,0,0,0,407.11,55.94Z"/><path d="M422.51,44.61v2h-2.68v7.21c0,.73.16,1.21.47,1.42a1.87,1.87,0,0,0,1.1.32,2.79,2.79,0,0,0,.53,0l.36-.07.46,2.11a4.47,4.47,0,0,1-.63.17,4.88,4.88,0,0,1-1,.1,4.54,4.54,0,0,1-1.88-.36,3.19,3.19,0,0,1-1.41-1.16,3.44,3.44,0,0,1-.53-2V46.65h-1.92v-2h1.92V41.47h2.55v3.14Z"/><path d="M426.61,42.59a1.61,1.61,0,0,1-1.14-.45,1.43,1.43,0,0,1-.47-1.07,1.45,1.45,0,0,1,.47-1.08,1.7,1.7,0,0,1,2.28,0,1.45,1.45,0,0,1,.47,1.08,1.43,1.43,0,0,1-.47,1.07A1.61,1.61,0,0,1,426.61,42.59ZM425.32,57.7V44.61h2.55V57.7Z"/><path d="M441.11,47.81l-2.31.41A2.93,2.93,0,0,0,438,47a2.57,2.57,0,0,0-1.8-.55,3.23,3.23,0,0,0-1.81.48,1.45,1.45,0,0,0-.72,1.24,1.3,1.3,0,0,0,.48,1.06,3.94,3.94,0,0,0,1.58.65l2.08.48q3.57.83,3.57,3.55a3.39,3.39,0,0,1-.67,2.09,4.4,4.4,0,0,1-1.89,1.43A6.91,6.91,0,0,1,436,58a6.26,6.26,0,0,1-3.59-.95,4,4,0,0,1-1.7-2.68l2.46-.37c.31,1.29,1.25,1.94,2.82,1.94a3.43,3.43,0,0,0,2-.52,1.54,1.54,0,0,0,.75-1.29c0-.83-.62-1.38-1.85-1.66L434.68,52A5.3,5.3,0,0,1,432,50.63a3.25,3.25,0,0,1-.87-2.31,3.36,3.36,0,0,1,.65-2,4.2,4.2,0,0,1,1.79-1.35,6.51,6.51,0,0,1,2.62-.49,5.45,5.45,0,0,1,3.34.92A4.31,4.31,0,0,1,441.11,47.81Z"/><path d="M444.16,57.7V44.61h2.45v2.13h.16a3.37,3.37,0,0,1,1.34-1.69,3.93,3.93,0,0,1,2.22-.61,3.75,3.75,0,0,1,2.2.61,3.54,3.54,0,0,1,1.32,1.69H454a3.7,3.7,0,0,1,1.49-1.67,4.54,4.54,0,0,1,2.44-.63,4,4,0,0,1,2.91,1.12A4.56,4.56,0,0,1,462,48.92V57.7h-2.55V49.16a2.37,2.37,0,0,0-.72-1.93,2.67,2.67,0,0,0-1.74-.59,2.46,2.46,0,0,0-1.93.76,2.84,2.84,0,0,0-.69,2V57.7h-2.54V49a2.25,2.25,0,0,0-.67-1.71,2.34,2.34,0,0,0-1.73-.65,2.54,2.54,0,0,0-1.88.83,3,3,0,0,0-.8,2.16V57.7Z"/><path d="M471,58a6.34,6.34,0,0,1-3.33-.84,5.56,5.56,0,0,1-2.15-2.35,7.89,7.89,0,0,1-.75-3.54,8,8,0,0,1,.75-3.55,5.73,5.73,0,0,1,2.12-2.39,5.82,5.82,0,0,1,3.18-.86,6.24,6.24,0,0,1,2.81.66,5.1,5.1,0,0,1,2.15,2.1,7.59,7.59,0,0,1,.83,3.82v.9h-9.3a4.17,4.17,0,0,0,1.06,2.92,3.58,3.58,0,0,0,2.65,1,3.68,3.68,0,0,0,1.89-.47,2.64,2.64,0,0,0,1.13-1.4l2.41.44A4.43,4.43,0,0,1,474.59,57,6.26,6.26,0,0,1,471,58Zm-3.69-8h6.81a3.57,3.57,0,0,0-.91-2.48,3,3,0,0,0-2.37-1A3.29,3.29,0,0,0,469,47a3.54,3.54,0,0,0-1.22,1.27A4,4,0,0,0,467.32,50Z"/><path d="M184.11,184.12h-2.8l6.28-17.45h3l6.28,17.45h-2.8l-1.59-4.62h-6.82Zm2.37-6.83h5.28l-2.57-7.45h-.14Z"/><path d="M204.54,184.38a6,6,0,0,1-3.27-.86,5.68,5.68,0,0,1-2.1-2.39,8,8,0,0,1-.74-3.5,7.86,7.86,0,0,1,.75-3.52,5.73,5.73,0,0,1,2.12-2.39,5.92,5.92,0,0,1,3.21-.86,6.11,6.11,0,0,1,2.66.55,4.86,4.86,0,0,1,1.89,1.54,4.65,4.65,0,0,1,.85,2.31h-2.48a2.89,2.89,0,0,0-.93-1.59,2.77,2.77,0,0,0-1.95-.66,3.12,3.12,0,0,0-2.57,1.23,5.22,5.22,0,0,0-1,3.33,5.47,5.47,0,0,0,1,3.4,3.08,3.08,0,0,0,2.58,1.26,3,3,0,0,0,1.87-.6,2.78,2.78,0,0,0,1-1.65h2.48a4.67,4.67,0,0,1-2.67,3.83A6,6,0,0,1,204.54,184.38Z"/><path d="M218.76,171v2h-2.68v7.21c0,.73.15,1.21.47,1.42a1.84,1.84,0,0,0,1.09.32,2.83,2.83,0,0,0,.54,0l.36-.07L219,184a4.3,4.3,0,0,1-.64.17,4.71,4.71,0,0,1-1,.1,4.54,4.54,0,0,1-1.88-.36,3.13,3.13,0,0,1-1.41-1.16,3.46,3.46,0,0,1-.53-2v-7.73h-1.92v-2h1.92v-3.14h2.55V171Z"/><path d="M222.86,169a1.61,1.61,0,0,1-1.14-.45,1.43,1.43,0,0,1-.47-1.07,1.45,1.45,0,0,1,.47-1.08,1.65,1.65,0,0,1,1.14-.44,1.6,1.6,0,0,1,1.13.44,1.43,1.43,0,0,1,.48,1.08,1.41,1.41,0,0,1-.48,1.07A1.57,1.57,0,0,1,222.86,169Zm-1.29,15.11V171h2.55v13.09Z"/><path d="M233.06,184.38a6,6,0,0,1-3.21-.84,5.61,5.61,0,0,1-2.13-2.36,8.69,8.69,0,0,1,0-7.11,5.58,5.58,0,0,1,2.13-2.37,6.57,6.57,0,0,1,6.43,0,5.71,5.71,0,0,1,2.13,2.37,8.8,8.8,0,0,1,0,7.11,5.74,5.74,0,0,1-2.13,2.36A6,6,0,0,1,233.06,184.38Zm0-2.13a3,3,0,0,0,2-.64,3.71,3.71,0,0,0,1.16-1.68,7.18,7.18,0,0,0,0-4.61,3.78,3.78,0,0,0-1.16-1.7,3.05,3.05,0,0,0-2-.63,3.1,3.1,0,0,0-2,.63,3.78,3.78,0,0,0-1.16,1.7,7,7,0,0,0,0,4.61,3.71,3.71,0,0,0,1.16,1.68A3,3,0,0,0,233.07,182.25Z"/><path d="M244.55,176.35v7.77H242V171h2.45v2.13h.16a3.71,3.71,0,0,1,1.42-1.67,4.38,4.38,0,0,1,2.44-.63,4.32,4.32,0,0,1,3.23,1.25,5,5,0,0,1,1.23,3.68v8.33h-2.55v-8a3.19,3.19,0,0,0-.74-2.23,2.67,2.67,0,0,0-2-.8,3,3,0,0,0-2.19.85A3.29,3.29,0,0,0,244.55,176.35Z"/><path d="M182.63,296.88h3.2l5.56,13.57h.2l5.56-13.57h3.19v17.46h-2.5V301.71h-.16l-5.15,12.6h-2.08L185.3,301.7h-.16v12.64h-2.51Z"/><path d="M212.7,308.91v-7.66h2.56v13.09h-2.51v-2.27h-.13a4.05,4.05,0,0,1-1.45,1.74,4.54,4.54,0,0,1-5.55-.55,5.08,5.08,0,0,1-1.21-3.69v-8.32H207v8a3,3,0,0,0,.74,2.14,2.55,2.55,0,0,0,1.93.79,3.12,3.12,0,0,0,1.42-.36,3,3,0,0,0,1.19-1.09A3.23,3.23,0,0,0,212.7,308.91Z"/><path d="M224.79,301.25v2H222.1v7.2c0,.74.16,1.22.48,1.43a1.92,1.92,0,0,0,1.09.32,2.9,2.9,0,0,0,.54,0l.36-.07.46,2.1a4.11,4.11,0,0,1-.64.18,5.48,5.48,0,0,1-1,.1,4.57,4.57,0,0,1-1.88-.36,3.17,3.17,0,0,1-1.4-1.16,3.39,3.39,0,0,1-.54-2v-7.73h-1.91v-2h1.91v-3.14h2.55v3.14Z"/><path d="M235.89,308.91v-7.66h2.56v13.09h-2.51v-2.27h-.13a4.05,4.05,0,0,1-1.45,1.74,4.54,4.54,0,0,1-5.55-.55,5.08,5.08,0,0,1-1.21-3.69v-8.32h2.55v8a3,3,0,0,0,.74,2.14,2.52,2.52,0,0,0,1.92.79,3.12,3.12,0,0,0,1.43-.36,3,3,0,0,0,1.19-1.09A3.23,3.23,0,0,0,235.89,308.91Z"/><path d="M245.68,314.63a5.45,5.45,0,0,1-2.25-.46,3.7,3.7,0,0,1-1.59-1.36,3.84,3.84,0,0,1-.59-2.17,3.6,3.6,0,0,1,.43-1.84,3.28,3.28,0,0,1,1.15-1.13,5.51,5.51,0,0,1,1.62-.62,15.37,15.37,0,0,1,1.82-.32l1.91-.23a2.91,2.91,0,0,0,1.06-.29.72.72,0,0,0,.34-.67v-.06a2.31,2.31,0,0,0-.63-1.73,2.56,2.56,0,0,0-1.86-.61,3.21,3.21,0,0,0-2,.56,2.92,2.92,0,0,0-1,1.26l-2.4-.54a4.43,4.43,0,0,1,2.14-2.57,6.92,6.92,0,0,1,3.27-.78,8.37,8.37,0,0,1,1.66.19,5,5,0,0,1,1.66.67,3.72,3.72,0,0,1,1.27,1.39,4.87,4.87,0,0,1,.49,2.32v8.7h-2.49v-1.79h-.11a3.91,3.91,0,0,1-1.3,1.4A4.3,4.3,0,0,1,245.68,314.63Zm.55-2.05a3.64,3.64,0,0,0,1.81-.42,3,3,0,0,0,1.15-1.09,2.79,2.79,0,0,0,.4-1.46v-1.68a1.73,1.73,0,0,1-.79.31c-.4.09-.83.17-1.28.23l-1.09.16a5.19,5.19,0,0,0-1.89.58,1.53,1.53,0,0,0-.79,1.46,1.62,1.62,0,0,0,.7,1.43A3.07,3.07,0,0,0,246.23,312.58Z"/><path d="M258.08,296.88v17.46h-2.55V296.88Z"/><path d="M262.79,299.23a1.61,1.61,0,0,1-1.14-.45,1.46,1.46,0,0,1,0-2.15,1.61,1.61,0,0,1,1.14-.45,1.57,1.57,0,0,1,1.13.45,1.44,1.44,0,0,1,0,2.15A1.57,1.57,0,0,1,262.79,299.23Zm-1.29,15.11V301.25h2.55v13.09Z"/><path d="M277.29,304.44l-2.31.41a3,3,0,0,0-.83-1.21,2.61,2.61,0,0,0-1.79-.55,3.21,3.21,0,0,0-1.81.49,1.4,1.4,0,0,0-.72,1.24,1.26,1.26,0,0,0,.48,1.06,4.1,4.1,0,0,0,1.57.65L274,307q3.59.83,3.58,3.54a3.39,3.39,0,0,1-.68,2.1,4.51,4.51,0,0,1-1.88,1.43,6.91,6.91,0,0,1-2.79.52,6.24,6.24,0,0,1-3.59-.94,4,4,0,0,1-1.7-2.68l2.46-.38c.31,1.3,1.24,1.95,2.81,1.95a3.44,3.44,0,0,0,2-.53,1.52,1.52,0,0,0,.75-1.28c0-.84-.62-1.39-1.85-1.66l-2.22-.49a5.12,5.12,0,0,1-2.71-1.33,3.22,3.22,0,0,1-.87-2.31,3.33,3.33,0,0,1,.65-2,4.21,4.21,0,0,1,1.79-1.36,6.67,6.67,0,0,1,2.61-.49,5.42,5.42,0,0,1,3.35.93A4.34,4.34,0,0,1,277.29,304.44Z"/><path d="M284.15,314.63a5.45,5.45,0,0,1-2.25-.46,3.7,3.7,0,0,1-1.59-1.36,3.84,3.84,0,0,1-.59-2.17,3.6,3.6,0,0,1,.43-1.84,3.22,3.22,0,0,1,1.16-1.13,5.34,5.34,0,0,1,1.61-.62,15.73,15.73,0,0,1,1.82-.32l1.91-.23a2.91,2.91,0,0,0,1.06-.29.72.72,0,0,0,.34-.67v-.06a2.31,2.31,0,0,0-.63-1.73,2.53,2.53,0,0,0-1.86-.61,3.21,3.21,0,0,0-2,.56,3.07,3.07,0,0,0-1,1.26l-2.4-.54a4.43,4.43,0,0,1,2.14-2.57,7,7,0,0,1,3.27-.78,8.29,8.29,0,0,1,1.66.19,5,5,0,0,1,1.66.67,3.72,3.72,0,0,1,1.27,1.39,4.87,4.87,0,0,1,.49,2.32v8.7h-2.49v-1.79H288a4,4,0,0,1-1.31,1.4A4.3,4.3,0,0,1,284.15,314.63Zm.55-2.05a3.68,3.68,0,0,0,1.82-.42,2.92,2.92,0,0,0,1.14-1.09,2.79,2.79,0,0,0,.4-1.46v-1.68a1.73,1.73,0,0,1-.79.31c-.4.09-.82.17-1.27.23l-1.09.16a5.18,5.18,0,0,0-1.9.58,1.53,1.53,0,0,0-.79,1.46,1.62,1.62,0,0,0,.7,1.43A3.09,3.09,0,0,0,284.7,312.58Z"/><path d="M300.11,301.25v2h-2.68v7.2c0,.74.15,1.22.47,1.43a1.92,1.92,0,0,0,1.09.32,2.83,2.83,0,0,0,.54,0l.36-.07.46,2.1a4.11,4.11,0,0,1-.64.18,5.45,5.45,0,0,1-1,.1,4.5,4.5,0,0,1-1.88-.36,3.2,3.2,0,0,1-1.41-1.16,3.46,3.46,0,0,1-.53-2v-7.73H293v-2h1.92v-3.14h2.55v3.14Z"/><path d="M304.21,299.23a1.61,1.61,0,0,1-1.14-.45,1.46,1.46,0,0,1,0-2.15,1.61,1.61,0,0,1,1.14-.45,1.59,1.59,0,0,1,1.13.45,1.44,1.44,0,0,1,0,2.15A1.59,1.59,0,0,1,304.21,299.23Zm-1.29,15.11V301.25h2.55v13.09Z"/><path d="M314.41,314.6a6,6,0,0,1-3.21-.84,5.63,5.63,0,0,1-2.13-2.37,8.67,8.67,0,0,1,0-7.1,5.58,5.58,0,0,1,2.13-2.37,6.51,6.51,0,0,1,6.43,0,5.62,5.62,0,0,1,2.12,2.37,8.67,8.67,0,0,1,0,7.1,5.68,5.68,0,0,1-2.12,2.37A6,6,0,0,1,314.41,314.6Zm0-2.14a3.05,3.05,0,0,0,2-.63,3.71,3.71,0,0,0,1.16-1.68,6.82,6.82,0,0,0,.38-2.31,6.91,6.91,0,0,0-.38-2.31,3.74,3.74,0,0,0-1.16-1.69,3.05,3.05,0,0,0-2-.63,3.1,3.1,0,0,0-2,.63,3.74,3.74,0,0,0-1.16,1.69,6.67,6.67,0,0,0-.39,2.31,6.59,6.59,0,0,0,.39,2.31,3.71,3.71,0,0,0,1.16,1.68A3.1,3.1,0,0,0,314.42,312.46Z"/><path d="M325.9,306.56v7.78h-2.55V301.25h2.45v2.13H326a3.66,3.66,0,0,1,1.42-1.67,4.38,4.38,0,0,1,2.44-.64,4.29,4.29,0,0,1,3.23,1.26,5,5,0,0,1,1.23,3.68v8.33h-2.55v-8a3.18,3.18,0,0,0-.74-2.23,2.64,2.64,0,0,0-2-.81,3,3,0,0,0-2.19.86A3.28,3.28,0,0,0,325.9,306.56Z"/></g></svg>